<?xml version="1.0" encoding="UTF-8" standalone="no"?>
<!-- Created with Inkscape (http://www.inkscape.org/) -->

<svg
   xmlns:dc="http://purl.org/dc/elements/1.1/"
   xmlns:cc="http://creativecommons.org/ns#"
   xmlns:rdf="http://www.w3.org/1999/02/22-rdf-syntax-ns#"
   xmlns:svg="http://www.w3.org/2000/svg"
   xmlns="http://www.w3.org/2000/svg"
   xmlns:sodipodi="http://sodipodi.sourceforge.net/DTD/sodipodi-0.dtd"
   xmlns:inkscape="http://www.inkscape.org/namespaces/inkscape"
   width="69.547623mm"
   height="69.547623mm"
   viewBox="0 0 246.42858 246.42858"
   id="svg2"
   version="1.1"
   inkscape:version="0.91 r13725"
   sodipodi:docname="forums.svg">
  <defs
     id="defs4" />
  <sodipodi:namedview
     id="base"
     pagecolor="#ffffff"
     bordercolor="#666666"
     borderopacity="1.0"
     inkscape:pageopacity="0.0"
     inkscape:pageshadow="2"
     inkscape:zoom="1.4"
     inkscape:cx="128.49087"
     inkscape:cy="139.83266"
     inkscape:document-units="px"
     inkscape:current-layer="layer1"
     showgrid="false"
     inkscape:window-width="1555"
     inkscape:window-height="876"
     inkscape:window-x="45"
     inkscape:window-y="24"
     inkscape:window-maximized="1"
     fit-margin-top="0"
     fit-margin-left="0"
     fit-margin-right="0"
     fit-margin-bottom="0" />
  <metadata
     id="metadata7">
    <rdf:RDF>
      <cc:Work
         rdf:about="">
        <dc:format>image/svg+xml</dc:format>
        <dc:type
           rdf:resource="http://purl.org/dc/dcmitype/StillImage" />
        <dc:title />
      </cc:Work>
    </rdf:RDF>
  </metadata>
  <g
     inkscape:label="Layer 1"
     inkscape:groupmode="layer"
     id="layer1"
     transform="translate(-118.92857,-222.71934)">
    <circle
       style="fill:#000000;fill-opacity:0;stroke:#000000;stroke-width:15;stroke-miterlimit:4;stroke-dasharray:none;stroke-opacity:1"
       id="path4238"
       cx="242.14285"
       cy="345.93362"
       r="115.71429" />
    <path
       style="fill:#000000;fill-opacity:1;stroke:none;stroke-width:15;stroke-miterlimit:4;stroke-dasharray:none;stroke-opacity:1"
       d="m 166.62779,296.95957 c -5.05664,0 -9.12695,4.07032 -9.12695,9.12696 l 0,5.98437 84.33398,27.38867 82.80859,-26.89453 0,-6.47851 c 0,-5.05664 -4.07226,-9.12696 -9.1289,-9.12696 l -148.88672,0 z m -9.12695,21.08008 0,66.93555 c 0,5.05664 4.07031,9.12695 9.12695,9.12695 l 148.88672,0 c 5.05664,0 9.1289,-4.07031 9.1289,-9.12695 l 0,-66.43945 -82.15429,26.68359 c -0.0727,0.0236 -0.1474,0.0229 -0.22071,0.0117 -0.127,0.15359 -0.34089,0.2291 -0.53515,0.16601 l -84.23242,-27.35742 z"
       id="rect4187"
       inkscape:connector-curvature="0" />
  </g>
</svg>
