<?xml version="1.0" encoding="UTF-8" standalone="no"?>
<!-- Created with Inkscape (http://www.inkscape.org/) -->

<svg
   xmlns:dc="http://purl.org/dc/elements/1.1/"
   xmlns:cc="http://creativecommons.org/ns#"
   xmlns:rdf="http://www.w3.org/1999/02/22-rdf-syntax-ns#"
   xmlns:svg="http://www.w3.org/2000/svg"
   xmlns="http://www.w3.org/2000/svg"
   xmlns:sodipodi="http://sodipodi.sourceforge.net/DTD/sodipodi-0.dtd"
   xmlns:inkscape="http://www.inkscape.org/namespaces/inkscape"
   id="svg4171"
   version="1.1"
   inkscape:version="0.91 r13725"
   xml:space="preserve"
   width="338.10001"
   height="62.525002"
   viewBox="0 0 338.10001 62.525002"
   sodipodi:docname="compleatfitness.svg"
   inkscape:export-filename="compleatfitness.png"
   inkscape:export-xdpi="250"
   inkscape:export-ydpi="250"><metadata
     id="metadata4177"><rdf:RDF><cc:Work
         rdf:about=""><dc:format>image/svg+xml</dc:format><dc:type
           rdf:resource="http://purl.org/dc/dcmitype/StillImage" /><dc:title></dc:title></cc:Work></rdf:RDF></metadata><defs
     id="defs4175" /><sodipodi:namedview
     pagecolor="#ffffff"
     bordercolor="#666666"
     borderopacity="1"
     objecttolerance="10"
     gridtolerance="10"
     guidetolerance="10"
     inkscape:pageopacity="0"
     inkscape:pageshadow="2"
     inkscape:window-width="1555"
     inkscape:window-height="876"
     id="namedview4173"
     showgrid="false"
     inkscape:zoom="3.0996746"
     inkscape:cx="169.05"
     inkscape:cy="31.262501"
     inkscape:window-x="45"
     inkscape:window-y="24"
     inkscape:window-maximized="1"
     inkscape:current-layer="g4179" /><g
     id="g4179"
     inkscape:groupmode="layer"
     inkscape:label="ink_ext_XXXXXX"
     transform="matrix(1.25,0,0,-1.25,0,62.525)"><g
       id="g4181"
       transform="scale(0.1,0.1)"><path
         d="m 102.195,262.504 c -3.1716,4.851 -7.6052,8.965 -13.2966,12.324 -5.6953,3.36 -12.1796,5.039 -19.4609,5.039 -7.6562,0.184 -14.5156,-1.027 -20.582,-3.644 -6.0664,-2.618 -11.25,-6.25 -15.5391,-10.918 -4.293,-4.668 -7.5586,-10.215 -9.8008,-16.66 -2.2343,-6.434 -3.3593,-13.399 -3.3593,-20.86 0,-7.469 1.125,-14.422 3.3593,-20.859 2.2422,-6.446 5.5078,-11.992 9.8008,-16.66 4.2891,-4.668 9.4727,-8.309 15.5391,-10.918 6.0664,-2.618 12.9258,-3.828 20.582,-3.641 7.2813,0 13.7656,1.68 19.4609,5.039 5.6914,3.359 10.125,7.461 13.2966,12.324 l 15.125,-11.484 c -6.539,-7.656 -13.914,-13.301 -22.1247,-16.945 -8.2148,-3.633 -16.7969,-5.547 -25.7578,-5.731 -10.6406,-0.187 -20.2578,1.445 -28.8437,4.891 -8.5821,3.457 -15.9102,8.262 -21.9766,14.426 -6.0703,6.16 -10.68751,13.484 -13.85939,21.984 C 1.58203,208.695 0,217.895 0,227.785 c 0,9.895 1.58203,19.082 4.75781,27.578 3.17188,8.496 7.78909,15.821 13.85939,21.985 6.0664,6.16 13.3945,10.965 21.9766,14.422 8.5859,3.449 18.2031,5.078 28.8437,4.894 8.9609,-0.187 17.543,-2.101 25.7578,-5.734 8.2107,-3.641 15.5857,-9.297 22.1247,-16.942 l -15.125,-11.484"
         style="fill:#ffffff;fill-opacity:1;fill-rule:nonzero;stroke:none"
         id="path4183"
         inkscape:connector-curvature="0" /><path
         d="m 248.359,227.785 c 0,7.278 -1.171,14.094 -3.5,20.442 -2.339,6.347 -5.648,11.855 -9.941,16.523 -4.297,4.656 -9.48,8.348 -15.539,11.055 -6.066,2.703 -12.93,4.062 -20.578,4.062 -7.656,0 -14.52,-1.359 -20.582,-4.062 -6.071,-2.707 -11.203,-6.399 -15.403,-11.055 -4.199,-4.668 -7.464,-10.176 -9.796,-16.523 -2.336,-6.348 -3.504,-13.164 -3.504,-20.442 0,-7.273 1.168,-14.09 3.504,-20.437 2.332,-6.348 5.597,-11.856 9.796,-16.524 4.2,-4.668 9.332,-8.351 15.403,-11.054 6.062,-2.715 12.926,-4.063 20.582,-4.063 7.648,0 14.512,1.348 20.578,4.063 6.059,2.703 11.242,6.386 15.539,11.054 4.293,4.668 7.602,10.176 9.941,16.524 2.329,6.347 3.5,13.164 3.5,20.437 z m 20.157,0 c 0,-9.89 -1.723,-19.043 -5.176,-27.441 -3.457,-8.399 -8.262,-15.672 -14.426,-21.836 -6.156,-6.16 -13.484,-10.965 -21.976,-14.422 -8.497,-3.449 -17.875,-5.176 -28.137,-5.176 -10.086,0 -19.371,1.727 -27.863,5.176 -8.497,3.457 -15.821,8.262 -21.977,14.422 -6.164,6.164 -10.973,13.437 -14.426,21.836 -3.449,8.398 -5.176,17.551 -5.176,27.441 0,9.895 1.727,19.043 5.176,27.442 3.453,8.398 8.262,15.675 14.426,21.836 6.156,6.164 13.48,10.968 21.977,14.425 8.492,3.446 17.777,5.176 27.863,5.176 10.262,0 19.64,-1.73 28.137,-5.176 8.492,-3.457 15.82,-8.261 21.976,-14.425 6.164,-6.161 10.969,-13.438 14.426,-21.836 3.453,-8.399 5.176,-17.547 5.176,-27.442"
         style="fill:#ffffff;fill-opacity:1;fill-rule:nonzero;stroke:none"
         id="path4185"
         inkscape:connector-curvature="0" /><path
         d="m 296.516,264.184 c 0,4.851 -0.145,9.707 -0.422,14.558 -0.281,4.856 -0.61,9.707 -0.981,14.563 l 19.875,0 0,-19.875 0.563,0 c 4.484,7.648 10.683,13.437 18.625,17.355 7.929,3.926 15.812,5.879 23.656,5.879 3.547,0 7.324,-0.371 11.344,-1.113 4.008,-0.754 7.879,-2.102 11.617,-4.063 3.734,-1.965 7.23,-4.718 10.5,-8.261 3.262,-3.547 6.02,-8.118 8.258,-13.723 3.734,8.398 9.664,15.031 17.785,19.883 8.117,4.855 16.559,7.277 25.336,7.277 16.801,0 29.215,-4.434 37.238,-13.301 8.024,-8.867 12.043,-21.515 12.043,-37.941 l 0,-83.152 -18.48,0 0,76.433 c 0,13.254 -2.336,23.43 -6.996,30.52 -4.668,7.097 -13.352,10.644 -26.043,10.644 -6.911,0 -12.7,-1.359 -17.364,-4.062 -4.668,-2.707 -8.445,-6.301 -11.336,-10.782 -2.894,-4.472 -4.996,-9.562 -6.3,-15.253 -1.309,-5.704 -1.961,-11.622 -1.961,-17.786 l 0,-69.714 -18.485,0 0,76.433 c 0,13.254 -2.332,23.43 -6.996,30.52 -4.668,7.097 -13.347,10.644 -26.039,10.644 -1.117,0 -3.687,-0.383 -7.699,-1.125 -4.02,-0.742 -8.168,-2.793 -12.461,-6.152 -4.297,-3.367 -8.172,-8.406 -11.621,-15.125 -3.457,-6.719 -5.184,-16.055 -5.184,-28 l 0,-67.195 -18.472,0 0,101.914"
         style="fill:#ffffff;fill-opacity:1;fill-rule:nonzero;stroke:none"
         id="path4187"
         inkscape:connector-curvature="0" /><path
         d="m 649.027,227.785 c 0,7.278 -1.172,14.094 -3.5,20.442 -2.339,6.347 -5.648,11.855 -9.941,16.523 -4.297,4.656 -9.477,8.348 -15.535,11.055 -6.071,2.703 -12.934,4.062 -20.582,4.062 -7.656,0 -14.66,-1.359 -21,-4.062 -6.352,-2.707 -11.86,-6.399 -16.52,-11.055 -4.668,-4.668 -8.312,-10.176 -10.926,-16.523 -2.617,-6.348 -3.918,-13.164 -3.918,-20.442 0,-7.273 1.301,-14.09 3.918,-20.437 2.614,-6.348 6.258,-11.856 10.926,-16.524 4.66,-4.668 10.168,-8.351 16.52,-11.054 6.34,-2.715 13.344,-4.063 21,-4.063 7.648,0 14.511,1.348 20.582,4.063 6.058,2.703 11.238,6.386 15.535,11.054 4.293,4.668 7.602,10.176 9.941,16.524 2.328,6.347 3.5,13.164 3.5,20.437 z m -119.558,65.52 18.476,0 0,-21.836 0.563,0 c 2.98,4.48 6.531,8.301 10.637,11.472 4.109,3.176 8.406,5.793 12.882,7.844 4.481,2.051 9.102,3.543 13.864,4.481 4.754,0.929 9.281,1.398 13.578,1.398 10.261,0 19.64,-1.73 28.136,-5.176 8.493,-3.457 15.825,-8.261 21.981,-14.425 6.16,-6.161 10.965,-13.438 14.422,-21.836 3.453,-8.399 5.176,-17.547 5.176,-27.442 0,-9.89 -1.723,-19.043 -5.176,-27.441 -3.457,-8.399 -8.262,-15.672 -14.422,-21.836 -6.156,-6.16 -13.488,-10.965 -21.981,-14.422 -8.496,-3.449 -17.875,-5.176 -28.136,-5.176 -4.297,0 -8.824,0.469 -13.578,1.395 -4.762,0.937 -9.383,2.422 -13.864,4.484 -4.476,2.051 -8.773,4.656 -12.882,7.84 -4.106,3.164 -7.657,6.996 -10.637,11.476 l -0.563,0 0,-102.48 -18.476,0 0,211.68"
         style="fill:#ffffff;fill-opacity:1;fill-rule:nonzero;stroke:none"
         id="path4189"
         inkscape:connector-curvature="0" /><path
         d="m 699.145,162.27 18.4844,0 0,211.68 -18.4844,0 0,-211.68 z"
         style="fill:#ffffff;fill-opacity:1;fill-rule:nonzero;stroke:none"
         id="path4191"
         inkscape:connector-curvature="0" /><path
         d="m 900.625,293.383 c 0.289,11.152 -3.375,20.683 -11,28.601 -7.629,7.922 -17.453,11.887 -29.48,11.887 -7.332,0 -13.793,-1.183 -19.36,-3.527 -5.574,-2.352 -10.34,-5.352 -14.301,-9.024 -3.961,-3.66 -7.035,-7.918 -9.238,-12.754 -2.203,-4.843 -3.453,-9.898 -3.738,-15.183 l 87.117,0 z m 55.879,-94.16 c -10.559,-13.489 -23.91,-23.907 -40.039,-31.243 -16.133,-7.324 -32.856,-10.996 -50.16,-10.996 -16.434,0 -31.903,2.641 -46.418,7.922 -14.52,5.282 -27.137,12.832 -37.84,22.657 -10.715,9.824 -19.141,21.628 -25.301,35.417 -6.16,13.79 -9.242,29.192 -9.242,46.204 0,17.011 3.082,32.41 9.242,46.199 6.16,13.789 14.586,25.597 25.301,35.422 10.703,9.824 23.32,17.383 37.84,22.664 14.515,5.273 29.984,7.922 46.418,7.922 15.25,0 29.109,-2.649 41.582,-7.922 12.465,-5.281 23.019,-12.84 31.679,-22.664 8.649,-9.825 15.329,-21.633 20.02,-35.422 4.687,-13.789 7.039,-29.188 7.039,-46.199 l 0,-20.676 -153.117,0 c 2.64,-12.617 8.355,-22.664 17.156,-30.145 8.805,-7.48 19.649,-11.222 32.563,-11.222 10.851,0 20.019,2.422 27.5,7.265 7.48,4.844 14.003,11.067 19.582,18.703 l 46.195,-33.886"
         style="fill:#6ecdae;fill-opacity:1;fill-rule:nonzero;stroke:none"
         id="path4193"
         inkscape:connector-curvature="0" /><path
         d="m 1115.78,255.988 c -4.99,0 -11.22,-0.222 -18.7,-0.664 -7.48,-0.437 -14.67,-1.687 -21.56,-3.738 -6.9,-2.051 -12.76,-5.137 -17.6,-9.238 -4.84,-4.114 -7.26,-9.836 -7.26,-17.16 0,-7.918 3.37,-13.79 10.12,-17.598 6.74,-3.817 13.79,-5.723 21.12,-5.723 6.45,0 12.68,0.879 18.7,2.637 6.01,1.758 11.37,4.25 16.06,7.48 4.69,3.227 8.43,7.336 11.22,12.325 2.78,4.984 4.18,10.851 4.18,17.597 l 0,14.082 -16.28,0 z m 16.28,-66.883 -0.88,0 c -7.33,-11.437 -17.09,-19.66 -29.26,-24.64 -12.17,-4.981 -25.01,-7.481 -38.5,-7.481 -9.97,0 -19.58,1.399 -28.82,4.184 -9.24,2.781 -17.38,6.961 -24.42,12.535 -7.04,5.567 -12.617,12.473 -16.719,20.684 -4.109,8.203 -6.16,17.746 -6.16,28.593 0,12.325 2.269,22.735 6.82,31.243 4.547,8.504 10.699,15.547 18.479,21.121 7.77,5.566 16.64,9.902 26.62,12.98 9.97,3.086 20.31,5.352 31.02,6.824 10.71,1.465 21.41,2.344 32.12,2.637 10.71,0.293 20.6,0.442 29.7,0.442 0,11.726 -4.18,21.043 -12.54,27.941 -8.36,6.891 -18.26,10.34 -29.7,10.34 -10.86,0 -20.75,-2.278 -29.7,-6.817 -8.95,-4.55 -16.94,-10.781 -23.98,-18.703 l -35.2,36.075 c 12.32,11.445 26.69,20.023 43.12,25.742 16.42,5.722 33.44,8.586 51.04,8.586 19.36,0 35.27,-2.422 47.74,-7.266 12.47,-4.832 22.44,-11.953 29.92,-21.34 7.48,-9.394 12.68,-20.898 15.62,-34.539 2.93,-13.644 4.4,-29.414 4.4,-47.297 l 0,-108.679 -60.72,0 0,26.835"
         style="fill:#6ecdae;fill-opacity:1;fill-rule:nonzero;stroke:none"
         id="path4195"
         inkscape:connector-curvature="0" /><path
         d="m 1370.98,323.305 -58.08,0 0,-71.282 c 0,-5.867 0.28,-11.218 0.87,-16.054 0.59,-4.844 1.91,-9.024 3.96,-12.539 2.06,-3.524 5.21,-6.239 9.47,-8.145 4.25,-1.914 9.89,-2.859 16.94,-2.859 3.52,0 8.14,0.359 13.86,1.101 5.72,0.723 10.04,2.422 12.98,5.059 l 0,-55 c -7.34,-2.637 -14.96,-4.402 -22.88,-5.281 -7.92,-0.879 -15.7,-1.321 -23.32,-1.321 -11.16,0 -21.42,1.172 -30.81,3.528 -9.39,2.343 -17.59,6.082 -24.63,11.211 -7.05,5.136 -12.54,11.804 -16.5,20.027 -3.96,8.203 -5.95,18.184 -5.95,29.914 l 0,101.641 -42.23,0 0,52.8 42.23,0 0,63.36 66.01,0 0,-63.36 58.08,0 0,-52.8"
         style="fill:#6ecdae;fill-opacity:1;fill-rule:nonzero;stroke:none"
         id="path4197"
         inkscape:connector-curvature="0" /><path
         d="m 1568.1,376.105 65.99,0 0,-213.835 -65.99,0 0,213.835 z m -5.29,67.325 c 0,10.558 3.74,19.582 11.22,27.05 7.48,7.481 16.5,11.223 27.06,11.223 10.57,0 19.58,-3.742 27.06,-11.223 7.48,-7.468 11.23,-16.492 11.23,-27.05 0,-10.567 -3.75,-19.578 -11.23,-27.059 -7.48,-7.48 -16.49,-11.223 -27.06,-11.223 -10.56,0 -19.58,3.743 -27.06,11.223 -7.48,7.481 -11.22,16.492 -11.22,27.059 z m -135.52,-120.125 -43.55,0 0,52.8 43.55,0 0,37.844 c 0,11.727 1.03,22.801 3.09,33.223 2.04,10.398 6,19.578 11.88,27.5 5.86,7.918 14.29,14.141 25.29,18.691 11,4.551 25.45,6.825 43.34,6.825 6.75,0 13.35,-0.301 19.8,-0.879 6.45,-0.594 12.76,-1.621 18.92,-3.086 l -3.08,-55.879 c -3.81,1.465 -7.33,2.57 -10.56,3.301 -3.23,0.734 -6.89,1.105 -10.99,1.105 -10.57,0 -18.49,-2.277 -23.76,-6.828 -5.29,-4.551 -7.92,-13.856 -7.92,-27.938 l 0,-33.879 48.83,0 0,-52.8 -48.83,0 0,-161.035 -66.01,0 0,161.035"
         style="fill:#6ecdae;fill-opacity:1;fill-rule:nonzero;stroke:none"
         id="path4199"
         inkscape:connector-curvature="0" /><path
         d="m 1827.25,323.305 -58.08,0 0,-71.282 c 0,-5.867 0.29,-11.218 0.88,-16.054 0.58,-4.844 1.9,-9.024 3.96,-12.539 2.05,-3.524 5.2,-6.239 9.46,-8.145 4.25,-1.914 9.9,-2.859 16.94,-2.859 3.52,0 8.14,0.359 13.86,1.101 5.72,0.723 10.05,2.422 12.98,5.059 l 0,-55 c -7.33,-2.637 -14.96,-4.402 -22.88,-5.281 -7.92,-0.879 -15.69,-1.321 -23.32,-1.321 -11.15,0 -21.42,1.172 -30.8,3.528 -9.39,2.343 -17.6,6.082 -24.64,11.211 -7.04,5.136 -12.54,11.804 -16.5,20.027 -3.96,8.203 -5.94,18.184 -5.94,29.914 l 0,101.641 -42.24,0 0,52.8 42.24,0 0,63.36 66,0 0,-63.36 58.08,0 0,-52.8"
         style="fill:#6ecdae;fill-opacity:1;fill-rule:nonzero;stroke:none"
         id="path4201"
         inkscape:connector-curvature="0" /><path
         d="m 1851.88,376.105 63.36,0 0,-29.042 0.88,0 c 2.05,4.113 4.99,8.214 8.81,12.324 3.81,4.101 8.36,7.765 13.63,10.996 5.28,3.222 11.29,5.871 18.05,7.922 6.74,2.05 14.07,3.086 21.99,3.086 16.72,0 30.22,-2.578 40.48,-7.707 10.28,-5.137 18.26,-12.246 23.99,-21.336 5.72,-9.094 9.61,-19.805 11.66,-32.121 2.05,-12.325 3.07,-25.672 3.07,-40.039 l 0,-117.918 -65.99,0 0,104.714 c 0,6.164 -0.23,12.539 -0.67,19.141 -0.44,6.602 -1.76,12.688 -3.95,18.262 -2.2,5.566 -5.58,10.117 -10.12,13.644 -4.55,3.516 -11.07,5.274 -19.58,5.274 -8.52,0 -15.41,-1.535 -20.68,-4.621 -5.29,-3.075 -9.32,-7.188 -12.11,-12.313 -2.79,-5.137 -4.62,-10.937 -5.5,-17.383 -0.87,-6.457 -1.31,-13.203 -1.31,-20.246 l 0,-106.472 -66.01,0 0,213.835"
         style="fill:#6ecdae;fill-opacity:1;fill-rule:nonzero;stroke:none"
         id="path4203"
         inkscape:connector-curvature="0" /><path
         d="m 2242.16,293.383 c 0.29,11.152 -3.37,20.683 -11,28.601 -7.62,7.922 -17.45,11.887 -29.48,11.887 -7.33,0 -13.79,-1.183 -19.36,-3.527 -5.57,-2.352 -10.34,-5.352 -14.3,-9.024 -3.96,-3.66 -7.03,-7.918 -9.24,-12.754 -2.2,-4.843 -3.45,-9.898 -3.74,-15.183 l 87.12,0 z m 55.89,-94.16 c -10.57,-13.489 -23.92,-23.907 -40.05,-31.243 -16.13,-7.324 -32.85,-10.996 -50.16,-10.996 -16.43,0 -31.9,2.641 -46.41,7.922 -14.53,5.282 -27.14,12.832 -37.85,22.657 -10.71,9.824 -19.14,21.628 -25.3,35.417 -6.16,13.79 -9.24,29.192 -9.24,46.204 0,17.011 3.08,32.41 9.24,46.199 6.16,13.789 14.59,25.597 25.3,35.422 10.71,9.824 23.32,17.383 37.85,22.664 14.51,5.273 29.98,7.922 46.41,7.922 15.25,0 29.11,-2.649 41.58,-7.922 12.46,-5.281 23.02,-12.84 31.68,-22.664 8.65,-9.825 15.33,-21.633 20.02,-35.422 4.69,-13.789 7.04,-29.188 7.04,-46.199 l 0,-20.676 -153.12,0 c 2.65,-12.617 8.36,-22.664 17.16,-30.145 8.81,-7.48 19.65,-11.222 32.57,-11.222 10.85,0 20.02,2.422 27.5,7.265 7.48,4.844 14,11.067 19.58,18.703 l 46.2,-33.886"
         style="fill:#6ecdae;fill-opacity:1;fill-rule:nonzero;stroke:none"
         id="path4205"
         inkscape:connector-curvature="0" /><path
         d="m 2460.39,313.188 c -9.68,12.023 -22.43,18.035 -38.28,18.035 -5.57,0 -11,-1.317 -16.28,-3.953 -5.27,-2.649 -7.92,-7.2 -7.92,-13.645 0,-5.281 2.72,-9.168 8.14,-11.66 5.42,-2.5 12.33,-4.695 20.69,-6.602 8.36,-1.914 17.3,-3.953 26.83,-6.16 9.54,-2.199 18.48,-5.644 26.84,-10.332 8.36,-4.699 15.25,-11.086 20.68,-19.141 5.43,-8.078 8.15,-18.859 8.15,-32.343 0,-13.789 -3.02,-25.157 -9.03,-34.102 -6.01,-8.945 -13.72,-16.133 -23.1,-21.562 -9.39,-5.43 -19.95,-9.239 -31.68,-11.438 -11.73,-2.195 -23.32,-3.301 -34.76,-3.301 -14.96,0 -30.06,2.129 -45.32,6.379 -15.25,4.246 -28.15,11.805 -38.72,22.664 l 40.04,44.434 c 6.16,-7.625 12.99,-13.418 20.47,-17.371 7.47,-3.965 16.2,-5.949 26.17,-5.949 7.63,0 14.52,1.105 20.68,3.3 6.17,2.207 9.24,6.231 9.24,12.102 0,5.574 -2.71,9.754 -8.13,12.547 -5.44,2.785 -12.33,5.129 -20.69,7.031 -8.36,1.906 -17.31,3.965 -26.83,6.164 -9.54,2.195 -18.49,5.496 -26.85,9.903 -8.36,4.402 -15.25,10.625 -20.67,18.699 -5.44,8.066 -8.15,18.847 -8.15,32.336 0,12.617 2.57,23.465 7.7,32.57 5.14,9.082 11.88,16.559 20.24,22.43 8.36,5.867 17.97,10.195 28.82,12.988 10.85,2.781 21.86,4.18 33,4.18 14.08,0 28.31,-2.063 42.69,-6.164 14.36,-4.11 26.54,-11.446 36.52,-22 l -40.49,-40.039"
         style="fill:#6ecdae;fill-opacity:1;fill-rule:nonzero;stroke:none"
         id="path4207"
         inkscape:connector-curvature="0" /><path
         d="m 2655.31,313.188 c -9.68,12.023 -22.43,18.035 -38.28,18.035 -5.57,0 -10.99,-1.317 -16.28,-3.953 -5.27,-2.649 -7.92,-7.2 -7.92,-13.645 0,-5.281 2.72,-9.168 8.15,-11.66 5.42,-2.5 12.32,-4.695 20.68,-6.602 8.36,-1.914 17.3,-3.953 26.84,-6.16 9.53,-2.199 18.47,-5.644 26.83,-10.332 8.36,-4.699 15.26,-11.086 20.69,-19.141 5.43,-8.078 8.14,-18.859 8.14,-32.343 0,-13.789 -3.02,-25.157 -9.02,-34.102 -6.02,-8.945 -13.72,-16.133 -23.11,-21.562 -9.38,-5.43 -19.95,-9.239 -31.68,-11.438 -11.73,-2.195 -23.32,-3.301 -34.75,-3.301 -14.97,0 -30.07,2.129 -45.33,6.379 -15.25,4.246 -28.15,11.805 -38.72,22.664 l 40.04,44.434 c 6.16,-7.625 12.99,-13.418 20.47,-17.371 7.47,-3.965 16.2,-5.949 26.17,-5.949 7.63,0 14.52,1.105 20.69,3.3 6.16,2.207 9.23,6.231 9.23,12.102 0,5.574 -2.71,9.754 -8.13,12.547 -5.44,2.785 -12.32,5.129 -20.68,7.031 -8.36,1.906 -17.32,3.965 -26.84,6.164 -9.54,2.195 -18.49,5.496 -26.85,9.903 -8.36,4.402 -15.25,10.625 -20.67,18.699 -5.44,8.066 -8.14,18.847 -8.14,32.336 0,12.617 2.56,23.465 7.69,32.57 5.14,9.082 11.89,16.559 20.25,22.43 8.35,5.867 17.96,10.195 28.81,12.988 10.85,2.781 21.86,4.18 33,4.18 14.08,0 28.31,-2.063 42.69,-6.164 14.36,-4.11 26.54,-11.446 36.52,-22 l -40.49,-40.039"
         style="fill:#6ecdae;fill-opacity:1;fill-rule:nonzero;stroke:none"
         id="path4209"
         inkscape:connector-curvature="0" /><path
         d="m 1460.59,51.6992 -16.62,0 0,-33.9648 c 0,-2.1367 0.21,-3.8867 0.62,-5.2305 0.41,-1.3594 0.98,-2.4062 1.73,-3.14843 0.73,-0.73828 1.62,-1.25 2.64,-1.53906 1.02,-0.28516 2.15,-0.42969 3.38,-0.42969 1.4,0 2.84,0.21094 4.31,0.61328 1.48,0.41406 2.84,0.94141 4.07,1.60547 l 0.37,-7.50781 C 1458.05,0.703125 1454.4,0 1450.13,0 c -1.56,0 -3.18,0.210938 -4.86,0.613281 -1.69,0.414059 -3.23,1.195309 -4.62,2.347659 -1.39,1.14453 -2.54,2.70312 -3.45,4.67578 -0.9,1.96875 -1.35,4.55858 -1.35,7.74998 l 0,36.3125 -12.19,0 0,7.3867 12.19,0 0,16.2539 8.12,0 0,-16.2539 16.62,0 0,-7.3867"
         style="fill:#ffffff;fill-opacity:1;fill-rule:nonzero;stroke:none"
         id="path4211"
         inkscape:connector-curvature="0" /><path
         d="m 1470.44,41.1211 c 0,2.5391 -0.06,5.125 -0.18,7.7539 -0.13,2.625 -0.23,6.0273 -0.31,10.2109 l 8,0 0,-10.7031 0.25,0 c 0.57,1.5586 1.39,3.0586 2.46,4.4922 1.06,1.4336 2.36,2.7305 3.88,3.875 1.51,1.1523 3.28,2.0781 5.29,2.7695 2.01,0.7032 4.29,1.0469 6.83,1.0469 2.3,0 4.31,-0.25 6.03,-0.7383 l -1.6,-8.0039 c -1.06,0.4141 -2.63,0.6172 -4.68,0.6172 -3.12,0 -5.78,-0.5976 -8,-1.7812 -2.21,-1.1914 -4.06,-2.711 -5.54,-4.5586 -1.47,-1.8438 -2.56,-3.836 -3.26,-5.9688 -0.7,-2.1367 -1.04,-4.1836 -1.04,-6.1562 l 0,-32.49613 -8.13,0 0,39.64063"
         style="fill:#ffffff;fill-opacity:1;fill-rule:nonzero;stroke:none"
         id="path4213"
         inkscape:connector-curvature="0" /><path
         d="m 1541.35,30.1563 c -2.06,0 -4.62,-0.0938 -7.7,-0.3047 -3.08,-0.2032 -6.03,-0.6953 -8.86,-1.4727 -2.83,-0.7773 -5.26,-1.9883 -7.27,-3.6367 -2.01,-1.6406 -3.01,-3.8945 -3.01,-6.7695 0,-1.8829 0.39,-3.5079 1.17,-4.8555 0.78,-1.3555 1.82,-2.4609 3.14,-3.32814 1.31,-0.86328 2.77,-1.48047 4.37,-1.84765 1.6,-0.36328 3.22,-0.55469 4.86,-0.55469 2.95,0 5.52,0.5 7.69,1.48047 2.18,0.98047 4,2.31641 5.48,4.00001 1.48,1.6836 2.56,3.6562 3.27,5.9062 0.69,2.2579 1.04,4.6641 1.04,7.2032 l 0,4.1797 -4.18,0 z m 4.18,6.6562 0,1.4727 c 0,9.9336 -4.93,14.8984 -14.77,14.8984 -6.73,0 -12.6,-2.2617 -17.61,-6.7734 l -4.92,5.789 c 5.42,5.5781 13.54,8.3672 24.37,8.3672 2.79,0 5.48,-0.4141 8.07,-1.2305 2.58,-0.8164 4.82,-2.0781 6.71,-3.75 1.88,-1.6836 3.4,-3.8007 4.55,-6.3476 1.15,-2.5391 1.73,-5.5781 1.73,-9.1055 l 0,-25.7265 c 0,-2.211 0.1,-4.53911 0.3,-6.95317 0.2,-2.42579 0.43,-4.41407 0.68,-5.97266 l -7.88,0 c -0.25,1.39453 -0.43,2.91406 -0.55,4.55859 -0.13,1.63672 -0.19,3.24219 -0.19,4.80074 l -0.25,0 c -2.38,-3.85933 -5.18,-6.62886 -8.43,-8.31246 C 1534.1,0.847656 1530.14,0 1525.46,0 c -2.54,0 -5,0.355469 -7.38,1.04688 -2.38,0.70312 -4.49,1.76953 -6.34,3.20312 -1.85,1.43359 -3.32,3.20313 -4.43,5.28906 -1.11,2.09764 -1.66,4.53904 -1.66,7.32814 0,4.6758 1.2,8.3476 3.63,11.0234 2.42,2.6641 5.46,4.6524 9.1,5.961 3.66,1.3164 7.55,2.1328 11.7,2.4609 4.14,0.3281 7.94,0.5 11.39,0.5 l 4.06,0"
         style="fill:#ffffff;fill-opacity:1;fill-rule:nonzero;stroke:none"
         id="path4215"
         inkscape:connector-curvature="0" /><path
         d="m 1580.61,1.48047 -8.12,0 0,57.60543 8.12,0 0,-57.60543 z m 1.85,79.76173 c 0,-1.7188 -0.62,-3.1328 -1.85,-4.2383 -1.23,-1.1055 -2.59,-1.6641 -4.06,-1.6641 -1.48,0 -2.83,0.5586 -4.06,1.6641 -1.24,1.1055 -1.85,2.5195 -1.85,4.2383 0,1.7344 0.61,3.1484 1.85,4.2539 1.23,1.1055 2.58,1.6602 4.06,1.6602 1.47,0 2.83,-0.5547 4.06,-1.6602 1.23,-1.1055 1.85,-2.5195 1.85,-4.2539"
         style="fill:#ffffff;fill-opacity:1;fill-rule:nonzero;stroke:none"
         id="path4217"
         inkscape:connector-curvature="0" /><path
         d="m 1606.09,59.0859 c 0.17,-1.5586 0.27,-3.0976 0.31,-4.6171 0.04,-1.5196 0.06,-3.0586 0.06,-4.6133 l 0.25,0 c 0.9,1.5547 2.05,3 3.45,4.3086 1.39,1.3164 2.95,2.4414 4.67,3.3828 1.73,0.9414 3.55,1.6836 5.48,2.2226 1.93,0.5274 3.83,0.7969 5.72,0.7969 7.39,0 12.85,-1.9531 16.38,-5.8476 3.53,-3.8946 5.29,-9.461 5.29,-16.6758 l 0,-36.56253 -8.13,0 0,31.87893 c 0,6.4062 -1.1,11.3125 -3.32,14.7148 -2.22,3.4063 -6.32,5.1094 -12.31,5.1094 -0.41,0 -1.56,-0.1641 -3.45,-0.4922 -1.89,-0.3281 -3.87,-1.2305 -5.96,-2.7109 -2.1,-1.4727 -3.97,-3.6953 -5.61,-6.6446 -1.64,-2.9531 -2.46,-7.0625 -2.46,-12.3125 l 0,-29.54293 -8.12,0 0,44.92973 c 0,1.5586 -0.07,3.5312 -0.19,5.9062 -0.12,2.3828 -0.27,4.6328 -0.43,6.7695 l 8.37,0"
         style="fill:#ffffff;fill-opacity:1;fill-rule:nonzero;stroke:none"
         id="path4219"
         inkscape:connector-curvature="0" /><path
         d="m 1679.83,7.38672 c 0,-1.72266 -0.62,-3.26172 -1.85,-4.61719 -1.23,-1.34765 -2.83,-2.031249 -4.8,-2.031249 -1.97,0 -3.57,0.683599 -4.8,2.031249 -1.23,1.35547 -1.85,2.89453 -1.85,4.61719 0,1.73047 0.62,3.26958 1.85,4.61718 1.23,1.3555 2.83,2.0352 4.8,2.0352 1.97,0 3.57,-0.6797 4.8,-2.0352 1.23,-1.3476 1.85,-2.88671 1.85,-4.61718"
         style="fill:#ffffff;fill-opacity:1;fill-rule:nonzero;stroke:none"
         id="path4221"
         inkscape:connector-curvature="0" /><path
         d="m 1737.44,59.0859 c 0.16,-1.5586 0.27,-3.0976 0.31,-4.6171 0.04,-1.5196 0.06,-3.0586 0.06,-4.6133 l 0.25,0 c 0.9,1.5547 2.04,3 3.44,4.3086 1.4,1.3164 2.96,2.4414 4.68,3.3828 1.72,0.9414 3.55,1.6836 5.48,2.2226 1.93,0.5274 3.83,0.7969 5.72,0.7969 7.39,0 12.85,-1.9531 16.37,-5.8476 3.53,-3.8946 5.3,-9.461 5.3,-16.6758 l 0,-36.56253 -8.13,0 0,31.87893 c 0,6.4062 -1.1,11.3125 -3.32,14.7148 -2.22,3.4063 -6.32,5.1094 -12.31,5.1094 -0.41,0 -1.56,-0.1641 -3.45,-0.4922 -1.89,-0.3281 -3.87,-1.2305 -5.97,-2.7109 -2.09,-1.4727 -3.96,-3.6953 -5.6,-6.6446 -1.64,-2.9531 -2.46,-7.0625 -2.46,-12.3125 l 0,-29.54293 -8.13,0 0,44.92973 c 0,1.5586 -0.06,3.5312 -0.18,5.9062 -0.12,2.3828 -0.27,4.6328 -0.43,6.7695 l 8.37,0"
         style="fill:#ffffff;fill-opacity:1;fill-rule:nonzero;stroke:none"
         id="path4223"
         inkscape:connector-curvature="0" /><path
         d="m 1845.65,30.2813 c 0,3.2031 -0.52,6.1953 -1.54,8.9921 -1.03,2.7891 -2.49,5.2032 -4.37,7.2618 -1.89,2.0507 -4.17,3.6757 -6.84,4.8593 -2.66,1.1914 -5.68,1.7891 -9.04,1.7891 -3.37,0 -6.39,-0.5977 -9.05,-1.7891 -2.67,-1.1836 -4.92,-2.8086 -6.77,-4.8593 -1.85,-2.0586 -3.28,-4.4727 -4.31,-7.2618 -1.03,-2.7968 -1.54,-5.789 -1.54,-8.9921 0,-3.1993 0.51,-6.1915 1.54,-8.9805 1.03,-2.7891 2.46,-5.211 4.31,-7.2617 1.85,-2.0586 4.1,-3.6719 6.77,-4.86332 2.66,-1.19531 5.68,-1.78906 9.05,-1.78906 3.36,0 6.38,0.59375 9.04,1.78906 2.67,1.19142 4.95,2.80472 6.84,4.86332 1.88,2.0507 3.34,4.4726 4.37,7.2617 1.02,2.789 1.54,5.7812 1.54,8.9805 z m 8.86,0 c 0,-4.3438 -0.76,-8.3633 -2.28,-12.0586 -1.52,-3.6914 -3.63,-6.8946 -6.34,-9.60551 -2.71,-2.70313 -5.93,-4.82031 -9.66,-6.33985 C 1832.5,0.757813 1828.37,0 1823.86,0 c -4.43,0 -8.52,0.757813 -12.25,2.27734 -3.73,1.51954 -6.96,3.63672 -9.66,6.33985 -2.71,2.71091 -4.83,5.91411 -6.35,9.60551 -1.51,3.6953 -2.27,7.7148 -2.27,12.0586 0,4.3476 0.76,8.3789 2.27,12.0703 1.52,3.6953 3.64,6.8867 6.35,9.5976 2.7,2.7149 5.93,4.8203 9.66,6.3399 3.73,1.5195 7.82,2.2773 12.25,2.2773 4.51,0 8.64,-0.7578 12.37,-2.2773 3.73,-1.5196 6.95,-3.625 9.66,-6.3399 2.71,-2.7109 4.82,-5.9023 6.34,-9.5976 1.52,-3.6914 2.28,-7.7227 2.28,-12.0703"
         style="fill:#ffffff;fill-opacity:1;fill-rule:nonzero;stroke:none"
         id="path4225"
         inkscape:connector-curvature="0" /><path
         d="m 1909.04,1.48047 c -0.17,1.55859 -0.27,3.09766 -0.31,4.61719 -0.04,1.51953 -0.06,3.05859 -0.06,4.61714 l -0.25,0 c -0.9,-1.55855 -2.05,-3.00386 -3.45,-4.31246 -1.39,-1.3164 -2.95,-2.4414 -4.67,-3.38281 -1.73,-0.9414 -3.55,-1.68359 -5.48,-2.210936 C 1892.89,0.269531 1890.98,0 1889.1,0 c -7.39,0 -12.85,1.95313 -16.38,5.84766 -3.53,3.90234 -5.29,9.46094 -5.29,16.68364 l 0,36.5546 8.13,0 0,-31.8789 c 0,-3.2031 0.24,-6.0312 0.73,-8.4922 0.5,-2.4609 1.34,-4.539 2.53,-6.2109 1.18,-1.6836 2.78,-2.96484 4.8,-3.82031 2.01,-0.86718 4.53,-1.29687 7.57,-1.29687 0.41,0 1.56,0.16406 3.45,0.5 1.88,0.32422 3.87,1.23047 5.96,2.70308 2.1,1.4805 3.97,3.6915 5.6,6.6446 1.64,2.9609 2.47,7.0586 2.47,12.3086 l 0,29.5429 8.12,0 0,-44.9296 c 0,-1.5586 0.07,-3.5313 0.19,-5.9063 0.12,-2.38281 0.26,-4.63281 0.43,-6.76953 l -8.37,0"
         style="fill:#ffffff;fill-opacity:1;fill-rule:nonzero;stroke:none"
         id="path4227"
         inkscape:connector-curvature="0" /><path
         d="m 1934.89,41.1211 c 0,2.5391 -0.06,5.125 -0.19,7.7539 -0.12,2.625 -0.22,6.0273 -0.3,10.2109 l 7.99,0 0,-10.7031 0.25,0 c 0.58,1.5586 1.4,3.0586 2.47,4.4922 1.05,1.4336 2.36,2.7305 3.88,3.875 1.52,1.1523 3.27,2.0781 5.29,2.7695 2,0.7032 4.29,1.0469 6.83,1.0469 2.29,0 4.31,-0.25 6.04,-0.7383 l -1.62,-8.0039 c -1.06,0.4141 -2.61,0.6172 -4.67,0.6172 -3.12,0 -5.79,-0.5976 -8,-1.7812 -2.22,-1.1914 -4.06,-2.711 -5.54,-4.5586 -1.48,-1.8438 -2.56,-3.836 -3.25,-5.9688 -0.71,-2.1367 -1.06,-4.1836 -1.06,-6.1562 l 0,-32.49613 -8.12,0 0,39.64063"
         style="fill:#ffffff;fill-opacity:1;fill-rule:nonzero;stroke:none"
         id="path4229"
         inkscape:connector-curvature="0" /><path
         d="m 1983.01,1.48047 -8.12,0 0,57.60543 8.12,0 0,-57.60543 z m 1.84,79.76173 c 0,-1.7188 -0.61,-3.1328 -1.84,-4.2383 -1.23,-1.1055 -2.58,-1.6641 -4.06,-1.6641 -1.48,0 -2.83,0.5586 -4.06,1.6641 -1.23,1.1055 -1.85,2.5195 -1.85,4.2383 0,1.7344 0.62,3.1484 1.85,4.2539 1.23,1.1055 2.58,1.6602 4.06,1.6602 1.48,0 2.83,-0.5547 4.06,-1.6602 1.23,-1.1055 1.84,-2.5195 1.84,-4.2539"
         style="fill:#ffffff;fill-opacity:1;fill-rule:nonzero;stroke:none"
         id="path4231"
         inkscape:connector-curvature="0" /><path
         d="m 2031.26,45.4297 c -1.23,2.375 -2.87,4.2617 -4.92,5.6562 -2.05,1.3946 -4.56,2.0977 -7.51,2.0977 -1.39,0 -2.81,-0.1641 -4.24,-0.4922 -1.44,-0.3281 -2.73,-0.8476 -3.89,-1.5391 -1.14,-0.7031 -2.06,-1.5859 -2.77,-2.6445 -0.69,-1.0664 -1.04,-2.3867 -1.04,-3.9414 0,-2.7148 0.95,-4.6758 2.83,-5.9062 1.89,-1.2305 4.72,-2.3008 8.49,-3.2032 l 8.26,-1.9726 c 4.02,-0.9024 7.36,-2.7305 10.03,-5.4805 2.66,-2.75 4,-6.1758 4,-10.2695 0,-3.125 -0.64,-5.8086 -1.91,-8.07034 -1.28,-2.25781 -2.96,-4.10547 -5.05,-5.53906 -2.09,-1.43359 -4.49,-2.48047 -7.2,-3.136719 C 2023.63,0.335938 2020.88,0 2018.09,0 c -4.42,0 -8.55,0.847656 -12.37,2.52734 -3.82,1.6836 -7.08,4.57032 -9.79,8.67576 l 7.02,4.8008 c 1.65,-2.625 3.71,-4.7148 6.21,-6.27343 2.51,-1.56641 5.49,-2.34375 8.93,-2.34375 1.64,0 3.29,0.19141 4.92,0.55469 1.65,0.36718 3.1,0.94531 4.38,1.72265 1.27,0.78124 2.3,1.78904 3.08,3.01954 0.78,1.2305 1.16,2.6641 1.16,4.3086 0,2.8672 -1.07,4.9453 -3.19,6.2109 -2.14,1.2735 -4.72,2.2813 -7.76,3.0235 l -7.88,1.8437 c -0.98,0.2422 -2.32,0.6563 -4,1.2344 -1.68,0.5664 -3.33,1.4297 -4.92,2.5859 -1.6,1.1446 -2.98,2.6446 -4.13,4.4922 -1.14,1.8438 -1.72,4.125 -1.72,6.8281 0,2.9493 0.59,5.5352 1.79,7.7579 1.18,2.2148 2.79,4.0195 4.8,5.414 2.01,1.3945 4.28,2.4453 6.82,3.1367 2.55,0.7032 5.18,1.0469 7.88,1.0469 4.02,0 7.76,-0.7773 11.2,-2.3359 3.46,-1.5586 6.12,-4.2305 8.01,-8 l -7.27,-4.8008"
         style="fill:#ffffff;fill-opacity:1;fill-rule:nonzero;stroke:none"
         id="path4233"
         inkscape:connector-curvature="0" /><path
         d="m 2051.34,94.543 8.11,0 0,-44.6875 0.25,0 c 0.91,1.5547 2.05,3 3.44,4.3086 1.4,1.3164 2.97,2.4414 4.69,3.3828 1.72,0.9414 3.55,1.6836 5.47,2.2226 1.93,0.5274 3.84,0.7969 5.73,0.7969 7.39,0 12.84,-1.9531 16.37,-5.8476 3.53,-3.8946 5.29,-9.461 5.29,-16.6758 l 0,-36.56253 -8.12,0 0,31.87893 c 0,6.4062 -1.11,11.3125 -3.32,14.7148 -2.22,3.4063 -6.32,5.1094 -12.31,5.1094 -0.42,0 -1.56,-0.1641 -3.45,-0.4922 -1.89,-0.3281 -3.88,-1.2305 -5.97,-2.7109 -2.1,-1.4727 -3.96,-3.6953 -5.61,-6.6446 -1.63,-2.9531 -2.46,-7.0625 -2.46,-12.3125 l 0,-29.54293 -8.11,0 0,93.06253"
         style="fill:#ffffff;fill-opacity:1;fill-rule:nonzero;stroke:none"
         id="path4235"
         inkscape:connector-curvature="0" /><path
         d="m 2132.82,7.38672 c 0,-1.72266 -0.62,-3.26172 -1.85,-4.61719 -1.23,-1.34765 -2.82,-2.031249 -4.8,-2.031249 -1.97,0 -3.56,0.683599 -4.79,2.031249 -1.24,1.35547 -1.85,2.89453 -1.85,4.61719 0,1.73047 0.61,3.26958 1.85,4.61718 1.23,1.3555 2.82,2.0352 4.79,2.0352 1.98,0 3.57,-0.6797 4.8,-2.0352 1.23,-1.3476 1.85,-2.88671 1.85,-4.61718"
         style="fill:#ffffff;fill-opacity:1;fill-rule:nonzero;stroke:none"
         id="path4237"
         inkscape:connector-curvature="0" /><path
         d="m 2212.46,51.6992 -16.62,0 0,-33.9648 c 0,-2.1367 0.2,-3.8867 0.62,-5.2305 0.41,-1.3594 0.99,-2.4062 1.72,-3.14843 0.74,-0.73828 1.62,-1.25 2.65,-1.53906 1.02,-0.28516 2.16,-0.42969 3.39,-0.42969 1.39,0 2.82,0.21094 4.3,0.61328 1.48,0.41406 2.83,0.94141 4.06,1.60547 l 0.37,-7.50781 C 2209.92,0.703125 2206.26,0 2202,0 c -1.56,0 -3.19,0.210938 -4.86,0.613281 -1.68,0.414059 -3.22,1.195309 -4.62,2.347659 -1.4,1.14453 -2.55,2.70312 -3.45,4.67578 -0.9,1.96875 -1.36,4.55858 -1.36,7.74998 l 0,36.3125 -12.18,0 0,7.3867 12.18,0 0,16.2539 8.13,0 0,-16.2539 16.62,0 0,-7.3867"
         style="fill:#ffffff;fill-opacity:1;fill-rule:nonzero;stroke:none"
         id="path4239"
         inkscape:connector-curvature="0" /><path
         d="m 2222.55,41.1211 c 0,2.5391 -0.06,5.125 -0.19,7.7539 -0.12,2.625 -0.23,6.0273 -0.3,10.2109 l 8,0 0,-10.7031 0.25,0 c 0.56,1.5586 1.39,3.0586 2.46,4.4922 1.06,1.4336 2.36,2.7305 3.88,3.875 1.51,1.1523 3.27,2.0781 5.28,2.7695 2.01,0.7032 4.29,1.0469 6.84,1.0469 2.29,0 4.31,-0.25 6.03,-0.7383 l -1.6,-8.0039 c -1.07,0.4141 -2.63,0.6172 -4.68,0.6172 -3.11,0 -5.79,-0.5976 -8,-1.7812 -2.21,-1.1914 -4.06,-2.711 -5.54,-4.5586 -1.48,-1.8438 -2.57,-3.836 -3.26,-5.9688 -0.7,-2.1367 -1.05,-4.1836 -1.05,-6.1562 l 0,-32.49613 -8.12,0 0,39.64063"
         style="fill:#ffffff;fill-opacity:1;fill-rule:nonzero;stroke:none"
         id="path4241"
         inkscape:connector-curvature="0" /><path
         d="m 2293.44,30.1563 c -2.05,0 -4.61,-0.0938 -7.69,-0.3047 -3.08,-0.2032 -6.03,-0.6953 -8.86,-1.4727 -2.83,-0.7773 -5.25,-1.9883 -7.26,-3.6367 -2.02,-1.6406 -3.02,-3.8945 -3.02,-6.7695 0,-1.8829 0.39,-3.5079 1.18,-4.8555 0.77,-1.3555 1.81,-2.4609 3.13,-3.32814 1.31,-0.86328 2.77,-1.48047 4.37,-1.84765 1.6,-0.36328 3.22,-0.55469 4.86,-0.55469 2.95,0 5.52,0.5 7.7,1.48047 2.17,0.98047 4,2.31641 5.48,4.00001 1.47,1.6836 2.56,3.6562 3.26,5.9062 0.69,2.2579 1.05,4.6641 1.05,7.2032 l 0,4.1797 -4.2,0 z m 4.2,6.6562 0,1.4727 c 0,9.9336 -4.93,14.8984 -14.78,14.8984 -6.73,0 -12.59,-2.2617 -17.6,-6.7734 l -4.93,5.789 c 5.42,5.5781 13.54,8.3672 24.38,8.3672 2.79,0 5.47,-0.4141 8.06,-1.2305 2.59,-0.8164 4.82,-2.0781 6.71,-3.75 1.89,-1.6836 3.41,-3.8007 4.55,-6.3476 1.16,-2.5391 1.72,-5.5781 1.72,-9.1055 l 0,-25.7265 c 0,-2.211 0.11,-4.53911 0.31,-6.95317 0.21,-2.42579 0.43,-4.41407 0.68,-5.97266 l -7.87,0 c -0.25,1.39453 -0.44,2.91406 -0.56,4.55859 -0.13,1.63672 -0.18,3.24219 -0.18,4.80074 l -0.25,0 c -2.38,-3.85933 -5.2,-6.62886 -8.44,-8.31246 C 2286.2,0.847656 2282.25,0 2277.57,0 c -2.54,0 -5.01,0.355469 -7.39,1.04688 -2.38,0.70312 -4.49,1.76953 -6.34,3.20312 -1.84,1.43359 -3.33,3.20313 -4.43,5.28906 -1.11,2.09764 -1.67,4.53904 -1.67,7.32814 0,4.6758 1.22,8.3476 3.64,11.0234 2.42,2.6641 5.45,4.6524 9.11,5.961 3.65,1.3164 7.55,2.1328 11.69,2.4609 4.15,0.3281 7.95,0.5 11.39,0.5 l 4.07,0"
         style="fill:#ffffff;fill-opacity:1;fill-rule:nonzero;stroke:none"
         id="path4243"
         inkscape:connector-curvature="0" /><path
         d="m 2330.5,59.0859 c 0.16,-1.5586 0.27,-3.0976 0.31,-4.6171 0.03,-1.5196 0.05,-3.0586 0.05,-4.6133 l 0.25,0 c 0.91,1.5547 2.05,3 3.45,4.3086 1.39,1.3164 2.96,2.4414 4.68,3.3828 1.72,0.9414 3.55,1.6836 5.47,2.2226 1.93,0.5274 3.84,0.7969 5.73,0.7969 7.39,0 12.84,-1.9531 16.37,-5.8476 3.53,-3.8946 5.29,-9.461 5.29,-16.6758 l 0,-36.56253 -8.12,0 0,31.87893 c 0,6.4062 -1.11,11.3125 -3.32,14.7148 -2.22,3.4063 -6.32,5.1094 -12.31,5.1094 -0.42,0 -1.56,-0.1641 -3.45,-0.4922 -1.89,-0.3281 -3.88,-1.2305 -5.97,-2.7109 -2.09,-1.4727 -3.96,-3.6953 -5.61,-6.6446 -1.63,-2.9531 -2.46,-7.0625 -2.46,-12.3125 l 0,-29.54293 -8.11,0 0,44.92973 c 0,1.5586 -0.07,3.5312 -0.2,5.9062 -0.11,2.3828 -0.26,4.6328 -0.42,6.7695 l 8.37,0"
         style="fill:#ffffff;fill-opacity:1;fill-rule:nonzero;stroke:none"
         id="path4245"
         inkscape:connector-curvature="0" /><path
         d="m 2419.87,45.4297 c -1.23,2.375 -2.88,4.2617 -4.93,5.6562 -2.04,1.3946 -4.55,2.0977 -7.51,2.0977 -1.39,0 -2.8,-0.1641 -4.24,-0.4922 -1.44,-0.3281 -2.73,-0.8476 -3.88,-1.5391 -1.15,-0.7031 -2.07,-1.5859 -2.77,-2.6445 -0.69,-1.0664 -1.04,-2.3867 -1.04,-3.9414 0,-2.7148 0.94,-4.6758 2.83,-5.9062 1.88,-1.2305 4.72,-2.3008 8.49,-3.2032 l 8.25,-1.9726 c 4.02,-0.9024 7.37,-2.7305 10.03,-5.4805 2.66,-2.75 4,-6.1758 4,-10.2695 0,-3.125 -0.63,-5.8086 -1.9,-8.07034 -1.28,-2.25781 -2.97,-4.10547 -5.05,-5.53906 -2.1,-1.43359 -4.49,-2.48047 -7.21,-3.136719 C 2412.23,0.335938 2409.48,0 2406.69,0 c -4.42,0 -8.55,0.847656 -12.36,2.52734 -3.82,1.6836 -7.08,4.57032 -9.79,8.67576 l 7.02,4.8008 c 1.64,-2.625 3.71,-4.7148 6.21,-6.27343 2.51,-1.56641 5.48,-2.34375 8.92,-2.34375 1.65,0 3.29,0.19141 4.93,0.55469 1.64,0.36718 3.09,0.94531 4.37,1.72265 1.27,0.78124 2.3,1.78904 3.08,3.01954 0.78,1.2305 1.16,2.6641 1.16,4.3086 0,2.8672 -1.06,4.9453 -3.19,6.2109 -2.13,1.2735 -4.72,2.2813 -7.76,3.0235 l -7.88,1.8437 c -0.98,0.2422 -2.31,0.6563 -4,1.2344 -1.68,0.5664 -3.32,1.4297 -4.92,2.5859 -1.6,1.1446 -2.97,2.6446 -4.13,4.4922 -1.14,1.8438 -1.72,4.125 -1.72,6.8281 0,2.9493 0.6,5.5352 1.79,7.7579 1.18,2.2148 2.79,4.0195 4.8,5.414 2.01,1.3945 4.29,2.4453 6.83,3.1367 2.55,0.7032 5.17,1.0469 7.87,1.0469 4.02,0 7.76,-0.7773 11.21,-2.3359 3.45,-1.5586 6.11,-4.2305 8,-8 l -7.26,-4.8008"
         style="fill:#ffffff;fill-opacity:1;fill-rule:nonzero;stroke:none"
         id="path4247"
         inkscape:connector-curvature="0" /><path
         d="m 2466.77,51.6992 -13.67,0 0,-50.21873 -8.12,0 0,50.21873 -12.19,0 0,7.3867 12.19,0 0,15.7618 c 0,7.6289 1.77,13.0703 5.3,16.3125 3.53,3.2382 8.2,4.8554 14.03,4.8554 1.14,0 2.32,-0.0781 3.51,-0.2422 1.18,-0.1601 2.35,-0.375 3.51,-0.6132 l -1.48,-7.3868 c -0.98,0.2422 -2.01,0.4532 -3.08,0.6172 -1.07,0.1641 -2.13,0.2383 -3.2,0.2383 -2.21,0 -4.02,-0.3633 -5.42,-1.1055 -1.39,-0.7421 -2.46,-1.7773 -3.2,-3.1328 -0.74,-1.3593 -1.23,-2.9336 -1.47,-4.7422 -0.25,-1.8086 -0.38,-3.7304 -0.38,-5.789 l 0,-14.7735 13.67,0 0,-7.3867"
         style="fill:#ffffff;fill-opacity:1;fill-rule:nonzero;stroke:none"
         id="path4249"
         inkscape:connector-curvature="0" /><path
         d="m 2523.89,30.2813 c 0,3.2031 -0.51,6.1953 -1.54,8.9921 -1.02,2.7891 -2.48,5.2032 -4.37,7.2618 -1.88,2.0507 -4.16,3.6757 -6.83,4.8593 -2.67,1.1914 -5.68,1.7891 -9.05,1.7891 -3.36,0 -6.38,-0.5977 -9.05,-1.7891 -2.66,-1.1836 -4.92,-2.8086 -6.77,-4.8593 -1.84,-2.0586 -3.28,-4.4727 -4.31,-7.2618 -1.02,-2.7968 -1.53,-5.789 -1.53,-8.9921 0,-3.1993 0.51,-6.1915 1.53,-8.9805 1.03,-2.7891 2.47,-5.211 4.31,-7.2617 1.85,-2.0586 4.11,-3.6719 6.77,-4.86332 2.67,-1.19531 5.69,-1.78906 9.05,-1.78906 3.37,0 6.38,0.59375 9.05,1.78906 2.67,1.19142 4.95,2.80472 6.83,4.86332 1.89,2.0507 3.35,4.4726 4.37,7.2617 1.03,2.789 1.54,5.7812 1.54,8.9805 z m 8.86,0 c 0,-4.3438 -0.76,-8.3633 -2.28,-12.0586 -1.52,-3.6914 -3.62,-6.8946 -6.33,-9.60551 -2.72,-2.70313 -5.94,-4.82031 -9.67,-6.33985 C 2510.74,0.757813 2506.61,0 2502.1,0 c -4.43,0 -8.52,0.757813 -12.25,2.27734 -3.73,1.51954 -6.95,3.63672 -9.66,6.33985 -2.71,2.71091 -4.82,5.91411 -6.34,9.60551 -1.52,3.6953 -2.28,7.7148 -2.28,12.0586 0,4.3476 0.76,8.3789 2.28,12.0703 1.52,3.6953 3.63,6.8867 6.34,9.5976 2.71,2.7149 5.93,4.8203 9.66,6.3399 3.73,1.5195 7.82,2.2773 12.25,2.2773 4.51,0 8.64,-0.7578 12.37,-2.2773 3.73,-1.5196 6.95,-3.625 9.67,-6.3399 2.71,-2.7109 4.81,-5.9023 6.33,-9.5976 1.52,-3.6914 2.28,-7.7227 2.28,-12.0703"
         style="fill:#ffffff;fill-opacity:1;fill-rule:nonzero;stroke:none"
         id="path4251"
         inkscape:connector-curvature="0" /><path
         d="m 2546.53,41.1211 c 0,2.5391 -0.05,5.125 -0.18,7.7539 -0.12,2.625 -0.23,6.0273 -0.31,10.2109 l 8,0 0,-10.7031 0.25,0 c 0.57,1.5586 1.4,3.0586 2.47,4.4922 1.05,1.4336 2.35,2.7305 3.87,3.875 1.52,1.1523 3.28,2.0781 5.29,2.7695 2.01,0.7032 4.29,1.0469 6.84,1.0469 2.29,0 4.31,-0.25 6.03,-0.7383 l -1.61,-8.0039 c -1.06,0.4141 -2.62,0.6172 -4.67,0.6172 -3.12,0 -5.79,-0.5976 -8,-1.7812 -2.21,-1.1914 -4.06,-2.711 -5.54,-4.5586 -1.48,-1.8438 -2.57,-3.836 -3.26,-5.9688 -0.7,-2.1367 -1.05,-4.1836 -1.05,-6.1562 l 0,-32.49613 -8.13,0 0,39.64063"
         style="fill:#ffffff;fill-opacity:1;fill-rule:nonzero;stroke:none"
         id="path4253"
         inkscape:connector-curvature="0" /><path
         d="m 2586.91,46.2852 c 0,2.1367 -0.07,4.2695 -0.2,6.4062 -0.11,2.1328 -0.26,4.2578 -0.42,6.3945 l 8.73,0 0,-8.7304 0.25,0 c 1.97,3.3554 4.7,5.9023 8.19,7.625 3.49,1.7226 6.95,2.5859 10.4,2.5859 1.56,0 3.22,-0.1641 4.98,-0.4883 1.77,-0.3281 3.48,-0.9258 5.11,-1.789 1.65,-0.8555 3.18,-2.0664 4.62,-3.625 1.44,-1.5703 2.65,-3.5782 3.63,-6.043 1.65,3.6953 4.25,6.6094 7.82,8.7422 3.57,2.1367 7.28,3.2031 11.14,3.2031 7.38,0 12.85,-1.9531 16.38,-5.8476 3.51,-3.8946 5.28,-9.461 5.28,-16.6758 l 0,-36.56253 -8.12,0 0,33.60153 c 0,5.8282 -1.03,10.3008 -3.08,13.4258 -2.05,3.1172 -5.87,4.6758 -11.44,4.6758 -3.04,0 -5.59,-0.5977 -7.64,-1.7891 -2.05,-1.1836 -3.71,-2.7734 -4.98,-4.7343 -1.28,-1.9688 -2.2,-4.211 -2.77,-6.711 -0.58,-2.5 -0.87,-5.1054 -0.87,-7.8203 l 0,-30.64843 -8.12,0 0,33.60153 c 0,5.8282 -1.02,10.3008 -3.08,13.4258 -2.05,3.1172 -5.87,4.6758 -11.44,4.6758 -0.5,0 -1.63,-0.1641 -3.39,-0.4922 -1.77,-0.3281 -3.59,-1.2305 -5.48,-2.7109 -1.89,-1.4727 -3.59,-3.6953 -5.11,-6.6446 -1.52,-2.9531 -2.28,-7.0625 -2.28,-12.3125 l 0,-29.54293 -8.11,0 0,44.80473"
         style="fill:#ffffff;fill-opacity:1;fill-rule:nonzero;stroke:none"
         id="path4255"
         inkscape:connector-curvature="0" /><path
         d="m 2704.82,7.38672 c 0,-1.72266 -0.62,-3.26172 -1.85,-4.61719 -1.23,-1.34765 -2.82,-2.031249 -4.8,-2.031249 -1.97,0 -3.56,0.683599 -4.79,2.031249 -1.24,1.35547 -1.85,2.89453 -1.85,4.61719 0,1.73047 0.61,3.26958 1.85,4.61718 1.23,1.3555 2.82,2.0352 4.79,2.0352 1.98,0 3.57,-0.6797 4.8,-2.0352 1.23,-1.3476 1.85,-2.88671 1.85,-4.61718"
         style="fill:#ffffff;fill-opacity:1;fill-rule:nonzero;stroke:none"
         id="path4257"
         inkscape:connector-curvature="0" /></g><path
       style="opacity:0.97000002;fill:#00df8a;fill-opacity:1;stroke:none;stroke-width:15;stroke-miterlimit:4;stroke-dasharray:none;stroke-opacity:1"
       d="m 219.01448,42.348655 c -2.16101,-0.523649 -3.99928,-1.746684 -4.96841,-3.305558 -0.73772,-1.186648 -0.7715,-1.519527 -0.92692,-9.135577 l -0.16131,-7.904056 -2.66157,-0.0937 -2.66157,-0.0937 0,-3.05179 0,-3.051791 2.74222,0 2.74223,0 0,-4.032681 0,-4.0326813 3.86144,0 3.86144,0 0.0906,3.9520273 0.0906,3.952028 3.62941,0.09122 3.62942,0.09122 0,3.043706 0,3.043706 -3.62942,0.09122 -3.62941,0.09122 -0.10337,3.064838 c -0.0569,1.685661 -0.006,4.416107 0.11216,6.067659 0.28712,4.00021 0.7922,4.647367 3.77532,4.837317 1.22093,0.07774 2.38444,-0.02052 2.78568,-0.235254 0.68317,-0.36562 0.68904,-0.34011 0.68904,2.996926 l 0,3.365685 -2.04277,0.355734 c -2.5881,0.450696 -5.07322,0.413647 -7.22478,-0.107714 z"
       id="path4259"
       inkscape:connector-curvature="0"
       transform="matrix(0.8,0,0,-0.8,0,50.02)" /><path
       style="opacity:0.97000002;fill:#00df8a;fill-opacity:1;stroke:none;stroke-width:15;stroke-miterlimit:4;stroke-dasharray:none;stroke-opacity:1"
       d="M 104.52768,42.332782 C 97.204517,40.739547 92.725526,34.251862 93.7848,26.772037 c 0.806665,-5.696084 5.097304,-10.203576 10.84936,-11.397698 2.59133,-0.537958 6.97923,-0.239374 8.88064,0.604301 3.87013,1.717213 6.40211,5.647401 6.99905,10.864042 0.18274,1.596942 0.33344,3.230178 0.3349,3.629413 l 0.003,0.725883 -9.46336,0 c -5.20485,0 -9.55439,0.09103 -9.66565,0.202284 -0.32032,0.320324 0.68972,2.449933 1.64428,3.466863 1.17065,1.247131 2.61092,1.8153 4.60168,1.8153 1.92406,0 3.38734,-0.611099 4.67063,-1.950571 0.50215,-0.524128 1.05438,-0.95296 1.22719,-0.95296 0.23419,0 4.08719,2.711722 5.35119,3.766143 0.36896,0.307784 -2.5437,2.746903 -4.29648,3.597963 -3.42636,1.663657 -6.56406,2.022852 -10.3932,1.189782 z m 8.13671,-17.308129 c -0.11127,-0.556321 -0.50637,-1.503488 -0.87801,-2.104816 -2.387,-3.862239 -8.99978,-2.408968 -10.1431,2.229119 l -0.2187,0.88719 5.72105,0 5.72106,0 -0.2023,-1.011493 z"
       id="path4261"
       inkscape:connector-curvature="0"
       transform="matrix(0.8,0,0,-0.8,0,50.02)" /><path
       style="opacity:0.97000002;fill:#00df8a;fill-opacity:1;stroke:none;stroke-width:15;stroke-miterlimit:4;stroke-dasharray:none;stroke-opacity:1"
       d="m 130.11608,42.48045 c -4.21388,-1.063071 -6.48331,-3.826661 -6.48331,-7.89502 0,-5.844512 4.20386,-8.590773 13.91393,-9.089563 3.92077,-0.201404 3.95202,-0.209245 3.95202,-0.991393 0,-2.200674 -2.57705,-4.113311 -5.48444,-4.070438 -2.04029,0.03009 -3.7267,0.661189 -5.48225,2.051605 l -1.23134,0.975244 -1.96353,-2.180476 -1.96353,-2.180475 0.88438,-0.733013 c 2.73039,-2.263093 6.95115,-3.431663 11.68965,-3.236429 3.87579,0.159689 6.16425,0.974089 7.97403,2.837732 2.52869,2.603953 2.99717,5.084512 2.99717,15.869921 l 0,8.328726 -3.71007,0 -3.71007,0 0,-1.678546 0,-1.678547 -1.2098,1.178704 c -0.66539,0.648287 -1.9114,1.488324 -2.7689,1.866749 -1.77971,0.785406 -5.51776,1.101062 -7.40394,0.625219 z m 8.33115,-5.759203 c 0.7171,-0.32573 1.69704,-1.059563 2.17765,-1.63074 0.71967,-0.855277 0.87384,-1.353493 0.87384,-2.82382 l 0,-1.785316 -3.4681,0.119342 c -3.78726,0.130325 -5.05036,0.587279 -6.31566,2.284842 -0.95515,1.281446 -0.47137,3.021891 1.06814,3.842735 1.44248,0.76911 3.96233,0.765977 5.66413,-0.007 z"
       id="path4263"
       inkscape:connector-curvature="0"
       transform="matrix(0.8,0,0,-0.8,0,50.02)" /><path
       style="opacity:0.97000002;fill:#00df8a;fill-opacity:1;stroke:none;stroke-width:15;stroke-miterlimit:4;stroke-dasharray:none;stroke-opacity:1"
       d="m 161.82344,42.316284 c -2.3204,-0.651772 -3.89656,-1.773419 -4.86296,-3.460646 -0.75392,-1.316267 -0.78875,-1.652268 -0.9441,-9.109425 l -0.16131,-7.742749 -2.50026,-0.09422 -2.50027,-0.09422 0,-3.051267 0,-3.051268 2.58092,0 2.58092,0 0,-4.032681 0,-4.0326813 4.03268,0 4.03268,0 0,4.0326813 0,4.032681 3.54876,0 3.54876,0 0,3.064838 0,3.064838 -3.54876,0 -3.54876,0 0.001,5.887715 c 0.001,5.266818 0.0675,5.996439 0.62984,6.918706 0.73752,1.209561 2.04941,1.568504 4.72384,1.292479 l 1.74265,-0.179856 0,3.165208 c 0,3.717912 0.2831,3.484068 -4.5166,3.730756 -2.19683,0.112908 -3.56737,0.01636 -4.83922,-0.340881 z"
       id="path4265"
       inkscape:connector-curvature="0"
       transform="matrix(0.8,0,0,-0.8,0,50.02)" /><path
       style="opacity:0.97000002;fill:#00df8a;fill-opacity:1;stroke:none;stroke-width:15;stroke-miterlimit:4;stroke-dasharray:none;stroke-opacity:1"
       d="m 178.52334,32.085168 -0.0853,-10.081704 -2.66157,-0.0937 -2.66157,-0.0937 0,-3.05179 0,-3.051791 2.70634,0 2.70635,0 0.11894,-4.599679 c 0.11231,-4.3432797 0.17275,-4.7074447 1.08437,-6.5329437 1.57111,-3.1461167 4.1679,-4.35624285 9.33132,-4.34846816 4.41632,0.00665 4.37807,-0.0155072 4.37384,2.53348426 -0.002,1.1770115 -0.0905,2.6654261 -0.19667,3.307588 L 193.04633,7.2400295 191.76935,6.95311 c -1.2158,-0.2731713 -3.13949,0.02119 -4.0078,0.6132702 -0.81532,0.5559435 -1.09679,1.8131361 -1.09679,4.8987468 l 0,3.247354 3.06483,0 3.06484,0 0,3.064838 0,3.064838 -3.06484,0 -3.06483,0 0,10.162357 0,10.162357 -4.02809,0 -4.02809,0 -0.0852,-10.081703 z"
       id="path4267"
       inkscape:connector-curvature="0"
       transform="matrix(0.8,0,0,-0.8,0,50.02)" /><path
       style="opacity:0.97000002;fill:#00df8a;fill-opacity:1;stroke:none;stroke-width:15;stroke-miterlimit:4;stroke-dasharray:none;stroke-opacity:1"
       d="m 196.02058,28.939676 0,-13.227195 4.03268,0 4.03268,0 0,13.227195 0,13.227195 -4.03268,0 -4.03268,0 0,-13.227195 z"
       id="path4269"
       inkscape:connector-curvature="0"
       transform="matrix(0.8,0,0,-0.8,0,50.02)" /><path
       style="opacity:0.97000002;fill:#00df8a;fill-opacity:1;stroke:none;stroke-width:15;stroke-miterlimit:4;stroke-dasharray:none;stroke-opacity:1"
       d="m 198.60149,11.494166 c -3.82553,-1.5903166 -4.10916,-7.0310263 -0.44632,-8.5614581 5.09313,-2.12804646 9.15972,4.7224542 4.69187,7.9038431 -1.12357,0.80005 -3.14844,1.113694 -4.24555,0.657615 z"
       id="path4271"
       inkscape:connector-curvature="0"
       transform="matrix(0.8,0,0,-0.8,0,50.02)" /><path
       style="opacity:0.97000002;fill:#00df8a;fill-opacity:1;stroke:none;stroke-width:15;stroke-miterlimit:4;stroke-dasharray:none;stroke-opacity:1"
       d="m 231.50817,28.939676 0,-13.227195 3.87138,0 3.87137,0 8.7e-4,1.855034 8.7e-4,1.855033 1.20893,-1.35802 c 1.99011,-2.235532 3.54668,-2.836462 7.33861,-2.833153 3.72065,0.0032 5.19273,0.56495 6.89601,2.631323 1.97146,2.391718 2.08559,3.122034 2.22264,14.22247 l 0.12448,10.081703 -3.85173,0 -3.85173,0 -0.15291,-8.146016 c -0.13773,-7.336888 -0.21919,-8.295488 -0.82014,-9.650844 -0.81315,-1.833934 -1.60207,-2.293849 -3.89937,-2.273206 -2.01377,0.01809 -3.06571,0.625467 -4.08738,2.359991 -0.5917,1.004552 -0.65392,1.784596 -0.74998,9.402752 l -0.10475,8.307323 -4.00858,0 -4.00859,0 0,-13.227195 z"
       id="path4273"
       inkscape:connector-curvature="0"
       transform="matrix(0.8,0,0,-0.8,0,50.02)" /><path
       style="opacity:0.97000002;fill:#00df8a;fill-opacity:1;stroke:none;stroke-width:15;stroke-miterlimit:4;stroke-dasharray:none;stroke-opacity:1"
       d="m 272.24234,42.323625 c -7.36138,-1.599319 -12.03808,-8.409007 -10.78671,-15.706417 1.26106,-7.353909 7.3554,-11.909529 15.36683,-11.486947 7.09586,0.374288 11.46587,5.540374 11.46587,13.554582 l 0,2.513135 -9.51713,0 c -5.24704,0 -9.51713,0.127071 -9.51713,0.283215 0,1.433411 2.27857,4.219993 3.97303,4.85883 2.35823,0.889089 5.56231,0.132138 7.29406,-1.723197 0.43017,-0.460862 0.90339,-0.837932 1.05162,-0.837932 0.20066,0 4.22374,2.805204 5.40304,3.767418 0.32924,0.268641 -2.14627,2.39635 -3.83575,3.296833 -3.55891,1.89688 -6.89503,2.350099 -10.89773,1.48048 z m 7.98062,-17.316013 c 0,-2.28422 -2.33222,-4.272513 -5.00052,-4.263113 -2.86151,0.01008 -5.35741,1.833563 -5.84471,4.270092 l -0.20431,1.021555 5.52477,0 5.52477,0 0,-1.028534 z"
       id="path4275"
       inkscape:connector-curvature="0"
       transform="matrix(0.8,0,0,-0.8,0,50.02)" /><path
       style="opacity:0.97000002;fill:#00df8a;fill-opacity:1;stroke:none;stroke-width:15;stroke-miterlimit:4;stroke-dasharray:none;stroke-opacity:1"
       d="m 297.65791,42.466205 c -1.94871,-0.346749 -4.59063,-1.469609 -5.79956,-2.464905 l -0.78526,-0.646506 0.65896,-0.837728 c 0.36242,-0.46075 1.40306,-1.651898 2.31252,-2.646996 l 1.65357,-1.809268 1.05366,0.788803 c 1.84603,1.382003 3.05743,1.83282 4.92503,1.83282 2.37647,0 3.71006,-0.680795 3.71006,-1.893971 0,-1.389516 -0.85515,-1.897199 -4.97115,-2.951234 -4.16462,-1.066487 -5.38099,-1.580548 -6.75242,-2.85372 -1.80245,-1.673302 -2.43263,-4.059026 -1.83394,-6.942895 0.5319,-2.562185 2.07081,-4.419641 4.75792,-5.742813 2.09351,-1.030869 2.31058,-1.069232 6.05008,-1.069232 4.37503,0 6.26953,0.477356 8.60295,2.167675 l 1.38342,1.002143 -2.55475,2.340702 -2.55476,2.340702 -0.92723,-0.780214 c -0.50998,-0.429118 -1.31528,-0.864885 -1.78956,-0.968373 -0.47427,-0.103487 -1.06328,-0.251543 -1.3089,-0.329014 -0.78039,-0.246146 -2.53846,0.233751 -3.23557,0.883211 -0.92109,0.858126 -0.86387,2.075224 0.12812,2.725202 0.4407,0.288755 2.36429,0.920885 4.27464,1.404733 4.17732,1.058016 5.62154,1.708985 7.04639,3.17611 1.41652,1.458547 1.84687,2.873408 1.69445,5.570855 -0.10299,1.822796 -0.29701,2.459469 -1.09587,3.596107 -1.9232,2.736373 -5.04798,4.081396 -9.97865,4.295189 -1.59694,0.06924 -3.69581,-0.01508 -4.66415,-0.187383 z"
       id="path4277"
       inkscape:connector-curvature="0"
       transform="matrix(0.8,0,0,-0.8,0,50.02)" /><path
       style="opacity:0.97000002;fill:#00df8a;fill-opacity:1;stroke:none;stroke-width:15;stroke-miterlimit:4;stroke-dasharray:none;stroke-opacity:1"
       d="m 321.56787,42.338858 c -2.43957,-0.556011 -4.53148,-1.520346 -5.45313,-2.513796 l -0.67077,-0.723029 2.35305,-2.567526 2.35305,-2.567526 1.14003,1.000956 c 1.51581,1.3309 3.11669,1.816413 5.43607,1.648644 2.32933,-0.168488 3.39032,-0.985659 3.04843,-2.347879 -0.26685,-1.063213 -1.87484,-1.811897 -5.57499,-2.595734 -5.42924,-1.150127 -7.83499,-3.208587 -8.1045,-6.934555 -0.21282,-2.942204 0.41146,-4.695263 2.37127,-6.658818 1.33661,-1.339169 2.08963,-1.79753 3.84256,-2.338955 3.72306,-1.149936 9.70322,-0.686479 12.25257,0.949563 2.51099,1.611425 2.51819,1.347445 -0.10891,3.992199 l -2.36387,2.379755 -1.13582,-0.770789 c -1.43942,-0.976814 -3.34452,-1.495695 -4.50333,-1.226547 -1.5477,0.359472 -2.35145,1.042794 -2.3461,1.994578 0.009,1.653432 0.36885,1.858067 5.49232,3.125748 5.39074,1.333808 7.33444,2.807112 8.0762,6.121682 0.98842,4.416723 -1.52008,8.278992 -6.31464,9.722467 -2.3711,0.713857 -7.32787,0.870599 -9.78949,0.309562 z"
       id="path4279"
       inkscape:connector-curvature="0"
       transform="matrix(0.8,0,0,-0.8,0,50.02)" /></g></svg>