<?xml version="1.0" encoding="UTF-8" standalone="no"?>
<!-- Generator: Adobe Illustrator 18.1.1, SVG Export Plug-In . SVG Version: 6.00 Build 0)  -->

<svg
   xmlns:dc="http://purl.org/dc/elements/1.1/"
   xmlns:cc="http://creativecommons.org/ns#"
   xmlns:rdf="http://www.w3.org/1999/02/22-rdf-syntax-ns#"
   xmlns:svg="http://www.w3.org/2000/svg"
   xmlns="http://www.w3.org/2000/svg"
   xmlns:sodipodi="http://sodipodi.sourceforge.net/DTD/sodipodi-0.dtd"
   xmlns:inkscape="http://www.inkscape.org/namespaces/inkscape"
   version="1.1"
   id="Layer_1"
   x="0px"
   y="0px"
   width="32px"
   height="32px"
   viewBox="0 0 32 32"
   enable-background="new 0 0 32 32"
   xml:space="preserve"
   inkscape:version="0.91 r13725"
   sodipodi:docname="facebook.svg"><metadata
     id="metadata4185"><rdf:RDF><cc:Work
         rdf:about=""><dc:format>image/svg+xml</dc:format><dc:type
           rdf:resource="http://purl.org/dc/dcmitype/StillImage" /></cc:Work></rdf:RDF></metadata><defs
     id="defs4183" /><sodipodi:namedview
     pagecolor="#ffffff"
     bordercolor="#666666"
     borderopacity="1"
     objecttolerance="10"
     gridtolerance="10"
     guidetolerance="10"
     inkscape:pageopacity="0"
     inkscape:pageshadow="2"
     inkscape:window-width="1555"
     inkscape:window-height="876"
     id="namedview4181"
     showgrid="false"
     inkscape:zoom="23.09375"
     inkscape:cx="8.6170501"
     inkscape:cy="16"
     inkscape:window-x="45"
     inkscape:window-y="24"
     inkscape:window-maximized="1"
     inkscape:current-layer="Layer_1" /><path
     id="White_2_"
     fill="#444444"
     d="M30.7,0H1.3C0.6,0,0,0.6,0,1.3v29.3C0,31.4,0.6,32,1.3,32H17V20h-4v-5h4v-4  c0-4.1,2.6-6.2,6.3-6.2C25.1,4.8,26.6,5,27,5v4.3l-2.6,0c-2,0-2.5,1-2.5,2.4V15h5l-1,5h-4l0.1,12h8.6c0.7,0,1.3-0.6,1.3-1.3V1.3  C32,0.6,31.4,0,30.7,0z"
     style="fill:#00cc66;fill-opacity:1" /><path
     style="opacity:0.97000002;fill:#00df8a;fill-opacity:1;stroke:none;stroke-width:15;stroke-miterlimit:4;stroke-dasharray:none;stroke-opacity:1"
     d="m 0.86275408,31.89878 c -0.2600886,-0.09216 -0.55260104,-0.368783 -0.6936109,-0.655936 l -0.12151124,-0.247445 0,-15.02571 0,-15.02571065 0.0976948,-0.18282852 C 0.29854894,0.47440593 0.48751372,0.2864428 0.75424723,0.15545701 L 1.0002706,0.03464141 15.91662,0.02356859 c 13.092073,-0.0097186 14.943425,-0.0032016 15.137739,0.05328708 0.263767,0.0766792 0.587355,0.34546656 0.724447,0.60176028 l 0.09562,0.17875888 0,15.06901217 0,15.069012 -0.09773,0.196187 c -0.147296,0.295678 -0.32262,0.48561 -0.579698,0.628002 l -0.231905,0.12845 -4.464524,0.01161 -4.464525,0.01161 -0.02782,-1.786983 c -0.0153,-0.98284 -0.04057,-3.672233 -0.05614,-5.976428 l -0.02832,-4.189445 1.998339,0 c 1.099087,0 1.998339,-0.0054 1.998339,-0.01189 0,-0.0065 0.224087,-1.131365 0.49797,-2.499609 0.273884,-1.368244 0.49797,-2.493067 0.49797,-2.499609 0,-0.0065 -1.120433,-0.01189 -2.489851,-0.01189 l -2.489851,0 7.54e-4,-1.916103 c 8.31e-4,-2.121348 0.01801,-2.30168 0.263058,-2.761435 0.232368,-0.4359674 0.625349,-0.7296733 1.196897,-0.8945365 0.208045,-0.060011 0.529697,-0.07499 1.927656,-0.089769 l 1.677943,-0.017739 0,-2.1584455 0,-2.1584459 -0.227335,-0.026027 C 25.512609,4.828296 23.260154,4.7452904 22.521247,4.8161182 20.869999,4.974397 19.60036,5.5137386 18.644089,6.4631309 c -0.84525,0.8391708 -1.389426,1.9914514 -1.577587,3.3405082 -0.05282,0.3786699 -0.06623,0.9525279 -0.06623,2.8333029 l 0,2.358457 -2.013532,0 -2.013532,0 0,2.511502 0,2.511502 2.013532,0 2.013532,0 0,5.975643 0,5.975643 -7.9783495,-0.0034 c -6.9267172,-0.003 -8.0021829,-0.01187 -8.15916742,-0.06749 z"
     id="path4133"
     inkscape:connector-curvature="0" /><path
     style="opacity:0.97000002;fill:#00df8a;fill-opacity:1;stroke:none;stroke-width:15;stroke-miterlimit:4;stroke-dasharray:none;stroke-opacity:1"
     d="M 1.4549391,31.929126 C 0.83288496,31.904962 0.82516802,31.90342 0.62261261,31.762773 0.38280946,31.596263 0.16799591,31.301959 0.08501822,31.026245 0.0356607,30.862242 0.02605041,28.387139 0.02640407,15.930331 L 0.02682708,1.0305819 0.13094668,0.80695942 c 0.12943016,-0.2779831 0.3774071,-0.53021108 0.65615325,-0.6674017 l 0.21317067,-0.10491631 15.0040594,0 15.00406,0 0.17825,0.09535921 c 0.264414,0.1414544 0.437194,0.30109866 0.569554,0.52625473 l 0.118231,0.20111948 0,15.06901217 0,15.069012 -0.10787,0.211221 c -0.146269,0.28641 -0.394668,0.532494 -0.664161,0.65797 l -0.22391,0.104253 -4.420797,4.33e-4 -4.420797,4.33e-4 -0.02834,-1.916103 c -0.01559,-1.053857 -0.04125,-3.742896 -0.05703,-5.975643 l -0.02869,-4.05954 1.998802,0 c 1.099341,-2e-5 1.998802,-0.0054 1.998802,-0.01191 0,-0.0065 0.224087,-1.131365 0.49797,-2.499609 0.273884,-1.368244 0.49797,-2.493067 0.49797,-2.499609 0,-0.0065 -1.12222,-0.01189 -2.493822,-0.01189 l -2.493822,0 0.01796,-2.024357 c 0.01712,-1.929765 0.02231,-2.037509 0.111144,-2.305819 C 22.2438,10.10351 22.584235,9.7443035 23.14912,9.5137606 23.495431,9.3724237 24.112433,9.3293207 25.844655,9.3254543 l 1.158322,-0.00259 0,-2.1600987 0,-2.1600983 -0.227334,-0.026954 C 25.7873,4.8585362 23.602017,4.7578076 22.88931,4.7965809 c -1.388338,0.07553 -2.532296,0.4180205 -3.460752,1.0361189 -1.204141,0.801629 -1.970716,2.0014735 -2.305505,3.6085785 -0.09297,0.4462718 -0.09778,0.5747217 -0.112742,3.0101427 l -0.01563,2.543978 -2.010737,0 -2.010736,0 0,2.511502 0,2.511502 2.013532,0 2.013532,0 0,5.975643 0,5.975643 -7.4587284,-0.0081 c -4.1023004,-0.0044 -7.741272,-0.01906 -8.0866035,-0.03248 z"
     id="path4135"
     inkscape:connector-curvature="0" /></svg>