<?xml version="1.0" encoding="UTF-8" standalone="no"?>
<!-- Generator: Adobe Illustrator 18.1.1, SVG Export Plug-In . SVG Version: 6.00 Build 0)  -->

<svg
   xmlns:dc="http://purl.org/dc/elements/1.1/"
   xmlns:cc="http://creativecommons.org/ns#"
   xmlns:rdf="http://www.w3.org/1999/02/22-rdf-syntax-ns#"
   xmlns:svg="http://www.w3.org/2000/svg"
   xmlns="http://www.w3.org/2000/svg"
   xmlns:sodipodi="http://sodipodi.sourceforge.net/DTD/sodipodi-0.dtd"
   xmlns:inkscape="http://www.inkscape.org/namespaces/inkscape"
   version="1.1"
   id="Layer_1"
   x="0px"
   y="0px"
   width="32px"
   height="32px"
   viewBox="0 0 32 32"
   enable-background="new 0 0 32 32"
   xml:space="preserve"
   inkscape:version="0.91 r13725"
   sodipodi:docname="instagram.svg"><metadata
     id="metadata4238"><rdf:RDF><cc:Work
         rdf:about=""><dc:format>image/svg+xml</dc:format><dc:type
           rdf:resource="http://purl.org/dc/dcmitype/StillImage" /></cc:Work></rdf:RDF></metadata><defs
     id="defs4236" /><sodipodi:namedview
     pagecolor="#ffffff"
     bordercolor="#666666"
     borderopacity="1"
     objecttolerance="10"
     gridtolerance="10"
     guidetolerance="10"
     inkscape:pageopacity="0"
     inkscape:pageshadow="2"
     inkscape:window-width="1555"
     inkscape:window-height="876"
     id="namedview4234"
     showgrid="false"
     inkscape:zoom="7.375"
     inkscape:cx="-7.1186441"
     inkscape:cy="16"
     inkscape:window-x="45"
     inkscape:window-y="24"
     inkscape:window-maximized="1"
     inkscape:current-layer="Layer_1" /><path
     fill="#444444"
     d="M28.2,0H3.8C1.7,0,0,1.7,0,3.8v24.4C0,30.3,1.7,32,3.8,32h24.4c2.1,0,3.8-1.7,3.8-3.8V3.8  C32,1.7,30.3,0,28.2,0z M24,4h3c0.6,0,1,0.4,1,1v3c0,0.6-0.4,1-1,1h-3c-0.6,0-1-0.4-1-1V5C23,4.4,23.4,4,24,4z M16,9.9  c3.4,0,6.2,2.7,6.2,6.1c0,3.4-2.8,6.1-6.2,6.1c-3.4,0-6.2-2.7-6.2-6.1C9.9,12.6,12.6,9.9,16,9.9z M28,29H4c-0.6,0-1-0.4-1-1V13h4  c-0.5,0.8-0.7,2.1-0.7,3c0,5.4,4.4,9.7,9.7,9.7c5.4,0,9.7-4.4,9.7-9.7c0-0.9-0.1-2.3-0.8-3h4v15C29,28.6,28.6,29,28,29z"
     id="path4232"
     style="fill:#00cc66;fill-opacity:1" /><path
     style="opacity:0.97000002;fill:#00df8a;fill-opacity:1;stroke:none;stroke-width:15;stroke-miterlimit:4;stroke-dasharray:none;stroke-opacity:1"
     d="M 2.6176214,31.717764 C 1.6281748,31.373623 0.96785242,30.799868 0.48813559,29.867452 l -0.40677966,-0.790651 0,-13.094332 c 0,-12.2519943 0.01546263,-13.1272371 0.24036982,-13.6058285 C 0.68815622,1.5968948 1.4976664,0.77898622 2.2508475,0.42750502 l 0.6779661,-0.31638125 13.0847454,0 13.084746,0 0.677966,0.31638125 c 0.816164,0.38087323 1.574967,1.18657528 1.882755,1.99912628 0.206491,0.5451234 0.222913,1.741955 0.188661,13.7496397 -0.03535,12.39392 -0.05172,13.181086 -0.2838,13.647412 -0.344075,0.691375 -1.134561,1.455994 -1.855412,1.794701 -0.606247,0.284857 -0.692994,0.286901 -13.491526,0.317899 C 4.0091296,31.965852 3.2980521,31.954426 2.6176214,31.717764 Z M 28.257304,28.980918 c 0.335633,-0.0932 0.548094,-0.246384 0.61017,-0.439921 0.05238,-0.163312 0.07898,-3.729133 0.05911,-7.924048 l -0.03613,-7.627118 -2.010936,0 -2.010934,0 0.352148,0.711864 c 0.325327,0.657647 0.351153,0.840952 0.339099,2.40678 -0.01111,1.441924 -0.06624,1.856829 -0.369411,2.779661 -0.509255,1.550131 -1.222181,2.688687 -2.464998,3.936649 -2.975275,2.987588 -7.397937,3.643904 -11.225318,1.665821 C 9.8336149,23.629323 8.269214,22.025806 7.4229601,20.311517 7.0733184,19.603234 6.6981257,18.59661 6.5891986,18.074576 6.2462552,16.431017 6.3748795,14.353976 6.8809889,13.362712 l 0.1903819,-0.372881 -2.0373803,0 -2.0373803,0 0,7.775594 c 0,7.234778 0.016504,7.790229 0.2372881,7.986001 0.1305085,0.115725 0.359322,0.240137 0.5084746,0.276474 0.5798198,0.141254 23.9986971,0.09637 24.5149311,-0.04698 z M 17.706203,21.913143 c 1.403716,-0.356681 3.079651,-1.65979 3.772966,-2.933641 1.955463,-3.592828 -0.06572,-8.02195 -4.094267,-8.971997 -0.448366,-0.105737 -1.168253,-0.1449177 -1.864526,-0.1014788 -4.2694,0.2663588 -7.0228264,4.9157478 -5.152412,8.7002718 0.624688,1.263972 1.610728,2.252213 2.85569,2.862068 1.447947,0.709288 2.881691,0.85155 4.482549,0.444777 z M 27.758477,8.714866 c 0.339622,-0.339621 0.34236,-0.3606964 0.298922,-2.3006269 -0.05777,-2.5800082 0.08814,-2.4413577 -2.569137,-2.4413577 -2.661279,0 -2.559448,-0.1006459 -2.559448,2.5296595 0,1.8252884 0.01129,1.900748 0.33282,2.2222666 0.321871,0.3218714 0.39567,0.3328196 2.243451,0.3328196 1.862832,0 1.919207,-0.00857 2.253392,-0.3427611 z"
     id="path4133"
     inkscape:connector-curvature="0" /></svg>