<?xml version="1.0" encoding="UTF-8" standalone="no"?>
<!-- Created with Inkscape (http://www.inkscape.org/) -->

<svg
   xmlns:dc="http://purl.org/dc/elements/1.1/"
   xmlns:cc="http://creativecommons.org/ns#"
   xmlns:rdf="http://www.w3.org/1999/02/22-rdf-syntax-ns#"
   xmlns:svg="http://www.w3.org/2000/svg"
   xmlns="http://www.w3.org/2000/svg"
   xmlns:sodipodi="http://sodipodi.sourceforge.net/DTD/sodipodi-0.dtd"
   xmlns:inkscape="http://www.inkscape.org/namespaces/inkscape"
   width="93.133331mm"
   height="93.133331mm"
   viewBox="0 0 329.9998 330.00005"
   id="svg2"
   version="1.1"
   inkscape:version="0.91 r13725"
   sodipodi:docname="picture.svg">
  <defs
     id="defs4" />
  <sodipodi:namedview
     id="base"
     pagecolor="#ffffff"
     bordercolor="#666666"
     borderopacity="1.0"
     inkscape:pageopacity="0.0"
     inkscape:pageshadow="2"
     inkscape:zoom="0.98994949"
     inkscape:cx="129.14031"
     inkscape:cy="110.23503"
     inkscape:document-units="px"
     inkscape:current-layer="layer1"
     showgrid="false"
     inkscape:window-width="1555"
     inkscape:window-height="876"
     inkscape:window-x="45"
     inkscape:window-y="24"
     inkscape:window-maximized="1"
     fit-margin-top="0"
     fit-margin-left="0"
     fit-margin-right="0"
     fit-margin-bottom="0" />
  <metadata
     id="metadata7">
    <rdf:RDF>
      <cc:Work
         rdf:about="">
        <dc:format>image/svg+xml</dc:format>
        <dc:type
           rdf:resource="http://purl.org/dc/dcmitype/StillImage" />
        <dc:title></dc:title>
      </cc:Work>
    </rdf:RDF>
  </metadata>
  <g
     inkscape:label="Layer 1"
     inkscape:groupmode="layer"
     id="layer1"
     transform="translate(-55.714951,-93.790948)">
    <path
       style="fill:#000000;fill-opacity:1;stroke:none;stroke-width:15;stroke-miterlimit:4;stroke-dasharray:none;stroke-opacity:1"
       d="m 60.714844,129.21875 c -2.77,0 -5,4.07227 -5,9.12891 l 0,240.3164 c 0,5.05664 2.23,9.12696 5,9.12696 l 319.999996,0 c 2.77,0 5,-4.07032 5,-9.12696 l 0,-240.3164 c 0,-5.05664 -2.23,-9.12891 -5,-9.12891 l -319.999996,0 z m 25.009765,28.57227 269.980471,0 c 2.37951,0 4.29492,3.41324 4.29492,7.65234 l 0,184.69531 c 0,4.2391 -1.91541,7.65235 -4.29492,7.65235 l -269.980471,0 c -2.379515,0 -4.296875,-3.41325 -4.296875,-7.65235 l 0,-184.69531 c 0,-4.2391 1.91736,-7.65234 4.296875,-7.65234 z"
       id="rect4136"
       inkscape:connector-curvature="0" />
    <path
       sodipodi:type="star"
       style="fill:#000000;fill-opacity:1;stroke:none;stroke-width:15;stroke-miterlimit:4;stroke-dasharray:none;stroke-opacity:1"
       id="path4146"
       sodipodi:sides="3"
       sodipodi:cx="182.85715"
       sodipodi:cy="348.07648"
       sodipodi:r1="134.16408"
       sodipodi:r2="67.082039"
       sodipodi:arg1="0.52359878"
       sodipodi:arg2="1.5707963"
       inkscape:flatsided="false"
       inkscape:rounded="0"
       inkscape:randomized="0"
       d="m 299.04665,415.15852 -116.1895,0 -116.189503,0 L 124.7624,314.53546 182.85715,213.9124 240.9519,314.53546 Z"
       inkscape:transform-center-y="-27.112446"
       transform="matrix(0.79712945,0,0,0.80833703,7.8106169,43.570516)" />
    <path
       sodipodi:type="star"
       style="fill:#000000;fill-opacity:1;stroke:none;stroke-width:15;stroke-miterlimit:4;stroke-dasharray:none;stroke-opacity:1"
       id="path4146-2"
       sodipodi:sides="3"
       sodipodi:cx="182.85715"
       sodipodi:cy="348.07648"
       sodipodi:r1="134.16408"
       sodipodi:r2="67.082039"
       sodipodi:arg1="0.52359878"
       sodipodi:arg2="1.5707963"
       inkscape:flatsided="false"
       inkscape:rounded="0"
       inkscape:randomized="0"
       d="m 299.04665,415.15852 -116.1895,0 -116.189503,0 L 124.7624,314.53546 182.85715,213.9124 240.9519,314.53546 Z"
       inkscape:transform-center-y="-21.398154"
       transform="matrix(0.62499686,0,0,0.63796995,114.28629,108.55518)" />
    <circle
       style="fill:#000000;fill-opacity:1;stroke:none;stroke-width:15;stroke-miterlimit:4;stroke-dasharray:none;stroke-opacity:1"
       id="path4163"
       cx="290.71426"
       cy="212.79077"
       r="30.714285" />
  </g>
</svg>
